<svg xmlns="http://www.w3.org/2000/svg" xmlns:xlink="http://www.w3.org/1999/xlink" width="375" height="812" viewBox="0 0 375 812">
  <defs>
    <filter id="Rectangle_664" x="3" y="102" width="369" height="623" filterUnits="userSpaceOnUse">
      <feOffset dy="30" input="SourceAlpha"/>
      <feGaussianBlur stdDeviation="15" result="blur"/>
      <feFlood flood-color="#2699fb" flood-opacity="0.102"/>
      <feComposite operator="in" in2="blur"/>
      <feComposite in="SourceGraphic"/>
    </filter>
    <clipPath id="clip-path">
      <rect width="16" height="16" fill="none"/>
    </clipPath>
    <clipPath id="clip-APPT_CONFIRMATION">
      <rect width="375" height="812"/>
    </clipPath>
  </defs>
  <g id="APPT_CONFIRMATION" data-name="APPT CONFIRMATION" clip-path="url(#clip-APPT_CONFIRMATION)">
    <rect width="375" height="812" fill="#779bbf"/>
    <g id="Pop_over" data-name="Pop over">
      <g transform="matrix(1, 0, 0, 1, 0, 0)" filter="url(#Rectangle_664)">
        <rect id="Rectangle_664-2" data-name="Rectangle 664" width="279" height="533" rx="6" transform="translate(48 117)" fill="#fff"/>
      </g>
      <g id="buttons" transform="translate(-1 36)">
        <g id="yes">
          <circle id="Ellipse_211" data-name="Ellipse 211" cx="28" cy="28" r="28" transform="translate(113 476)" fill="#d8e2ec"/>
          <g id="Component_148_1" data-name="Component 148 – 1" transform="translate(133 496)" clip-path="url(#clip-path)">
            <path id="Checkbox" d="M6.9,12,1,6.1,2.4,4.7,6.9,9.1,15,1l1.4,1.4Z" transform="translate(-1 1)" fill="#fff"/>
            <rect id="Rectangle_556" data-name="Rectangle 556" width="16" height="16" fill="none"/>
          </g>
        </g>
        <g id="no">
          <g id="Path_2085" data-name="Path 2085" transform="translate(193 476)" fill="#d8e2ec">
            <path d="M 28 55.5 C 24.28730010986328 55.5 20.6859302520752 54.77296829223633 17.2959098815918 53.33911895751953 C 14.02128982543945 51.95407104492188 11.08028030395508 49.97114944458008 8.554559707641602 47.44543838500977 C 6.028850078582764 44.91971969604492 4.045929908752441 41.97871017456055 2.660880088806152 38.7040901184082 C 1.227030038833618 35.31407165527344 0.5 31.71269989013672 0.5 28 C 0.5 24.28730010986328 1.227030038833618 20.6859302520752 2.660880088806152 17.2959098815918 C 4.045929908752441 14.02128982543945 6.028850078582764 11.08028030395508 8.554559707641602 8.554559707641602 C 11.08028030395508 6.028850078582764 14.02128982543945 4.045929908752441 17.2959098815918 2.660880088806152 C 20.6859302520752 1.227030038833618 24.28730010986328 0.5 28 0.5 C 31.71269989013672 0.5 35.31407165527344 1.227030038833618 38.7040901184082 2.660880088806152 C 41.97871017456055 4.045929908752441 44.91971969604492 6.028850078582764 47.44543838500977 8.554559707641602 C 49.97114944458008 11.08028030395508 51.95407104492188 14.02128982543945 53.33911895751953 17.2959098815918 C 54.77296829223633 20.6859302520752 55.5 24.28730010986328 55.5 28 C 55.5 31.71269989013672 54.77296829223633 35.31407165527344 53.33911895751953 38.7040901184082 C 51.95407104492188 41.97871017456055 49.97114944458008 44.91971969604492 47.44543838500977 47.44543838500977 C 44.91971969604492 49.97114944458008 41.97871017456055 51.95407104492188 38.7040901184082 53.33911895751953 C 35.31407165527344 54.77296829223633 31.71269989013672 55.5 28 55.5 Z" stroke="none"/>
            <path d="M 28 1 C 24.35457992553711 1 20.81874084472656 1.713741302490234 17.49068832397461 3.121379852294922 C 14.27566909790039 4.481220245361328 11.38806915283203 6.42816162109375 8.908119201660156 8.908119201660156 C 6.42816162109375 11.38806915283203 4.481220245361328 14.27566909790039 3.121379852294922 17.49068832397461 C 1.713741302490234 20.81874084472656 1 24.35457992553711 1 28 C 1 31.64542007446289 1.713741302490234 35.18125915527344 3.121379852294922 38.50930786132812 C 4.481220245361328 41.72433090209961 6.42816162109375 44.61193084716797 8.908119201660156 47.09188079833984 C 11.38806915283203 49.57183837890625 14.27566909790039 51.51877975463867 17.49068832397461 52.87862014770508 C 20.81874084472656 54.28625869750977 24.35457992553711 55 28 55 C 31.64542007446289 55 35.18125915527344 54.28625869750977 38.50930786132812 52.87862014770508 C 41.72433090209961 51.51877975463867 44.61193084716797 49.57183837890625 47.09188079833984 47.09188079833984 C 49.57183837890625 44.61193084716797 51.51877975463867 41.72433090209961 52.87862014770508 38.50930786132812 C 54.28625869750977 35.18125915527344 55 31.64542007446289 55 28 C 55 24.35457992553711 54.28625869750977 20.81874084472656 52.87862014770508 17.49068832397461 C 51.51877975463867 14.27566909790039 49.57183837890625 11.38806915283203 47.09188079833984 8.908119201660156 C 44.61193084716797 6.42816162109375 41.72433090209961 4.481220245361328 38.50930786132812 3.121379852294922 C 35.18125915527344 1.713741302490234 31.64542007446289 1 28 1 M 28 0 C 43.46397018432617 0 56 12.53602981567383 56 28 C 56 43.46397018432617 43.46397018432617 56 28 56 C 12.53602981567383 56 0 43.46397018432617 0 28 C 0 12.53602981567383 12.53602981567383 0 28 0 Z" stroke="none" fill="#f1f9ff"/>
          </g>
          <g id="Component_71_1" data-name="Component 71 – 1" transform="translate(213 495.999)">
            <rect id="Rectangle_1445" data-name="Rectangle 1445" width="16" height="16" fill="none"/>
            <path id="Union_3" data-name="Union 3" d="M7.778,9.192,1.414,15.557,0,14.142,6.364,7.778,0,1.414,1.414,0,7.778,6.364,14.142,0l1.415,1.414L9.192,7.778l6.364,6.364-1.415,1.415Z" fill="#fff"/>
          </g>
        </g>
      </g>
      <path id="Checkbox-2" data-name="Checkbox" d="M47.2,87.143,1,40.939,11.964,29.975,47.2,64.432,110.636,1,121.6,11.964Z" transform="translate(126 209.429)" fill="#779bbf"/>
      <text id="Hope_Carter_s_appointment_is_confirmed_for_April_17_2020_with_Dr._Jane_Doe_at_Family_Medicine_of_SF._" data-name="Hope Carter’s appointment is confirmed for April 17, 2020
with Dr. Jane Doe at Family Medicine of SF. " transform="translate(188 356)" fill="#779bbf" font-size="11" font-family="Helvetica-Bold, Helvetica" font-weight="700"><tspan x="-150.477" y="0">Hope Carter’s appointment is confirmed for April 17, 2020</tspan><tspan x="-114.001" y="48">with Dr. Jane Doe at Family Medicine of SF. </tspan></text>
    </g>
  </g>
</svg>
