<svg xmlns="http://www.w3.org/2000/svg" xmlns:xlink="http://www.w3.org/1999/xlink" width="375" height="812" viewBox="0 0 375 812">
  <defs>
    <clipPath id="clip-path">
      <rect width="30" height="30" fill="none"/>
    </clipPath>
    <clipPath id="clip-Book_Appointment_">
      <rect width="375" height="812"/>
    </clipPath>
  </defs>
  <g id="Book_Appointment_" data-name="Book Appointment " clip-path="url(#clip-Book_Appointment_)">
    <rect width="375" height="812" fill="#fff"/>
    <g id="Group_2411" data-name="Group 2411" transform="translate(0 -34)">
      <rect id="Background" width="375" height="140.523" transform="translate(0 0)" fill="#648db6"/>
      <line id="Separator" x2="375" transform="translate(0 140.773)" fill="none" stroke="rgba(0,0,0,0.3)" stroke-width="0.5"/>
      <text id="Large_Title" data-name="Large Title" transform="translate(16 78)" fill="#fff" font-size="34" font-family="Helvetica-Bold, Helvetica" font-weight="700" letter-spacing="0em"><tspan x="120.479" y="26">BOOK </tspan></text>
    </g>
    <g id="Group_2413" data-name="Group 2413" transform="translate(0 80)">
      <g id="Path_2088" data-name="Path 2088" transform="translate(26 167)" fill="#9eb7d1">
        <path d="M 15 29.5 C 11.12691020965576 29.5 7.485640048980713 27.99173927307129 4.746950149536133 25.25304985046387 C 2.008260011672974 22.51436042785645 0.5 18.87309074401855 0.5 15 C 0.5 11.12691020965576 2.008260011672974 7.485640048980713 4.746950149536133 4.746950149536133 C 7.485640048980713 2.008260011672974 11.12691020965576 0.5 15 0.5 C 18.87309074401855 0.5 22.51436042785645 2.008260011672974 25.25304985046387 4.746950149536133 C 27.99173927307129 7.485640048980713 29.5 11.12691020965576 29.5 15 C 29.5 18.87309074401855 27.99173927307129 22.51436042785645 25.25304985046387 25.25304985046387 C 22.51436042785645 27.99173927307129 18.87309074401855 29.5 15 29.5 Z" stroke="none"/>
        <path d="M 15 1 C 11.26046943664551 1 7.744760513305664 2.456249237060547 5.100509643554688 5.100509643554688 C 2.456249237060547 7.744760513305664 1 11.26046943664551 1 15 C 1 18.73952865600586 2.456249237060547 22.25523948669434 5.100509643554688 24.89949035644531 C 7.744760513305664 27.54375076293945 11.26046943664551 29 15 29 C 18.73952865600586 29 22.25523948669434 27.54375076293945 24.89949035644531 24.89949035644531 C 27.54375076293945 22.25523948669434 29 18.73952865600586 29 15 C 29 11.26046943664551 27.54375076293945 7.744760513305664 24.89949035644531 5.100509643554688 C 22.25523948669434 2.456249237060547 18.73952865600586 1 15 1 M 15 0 C 23.28426933288574 0 30 6.715730667114258 30 15 C 30 23.28426933288574 23.28426933288574 30 15 30 C 6.715730667114258 30 0 23.28426933288574 0 15 C 0 6.715730667114258 6.715730667114258 0 15 0 Z" stroke="none" fill="#848484"/>
      </g>
      <text id="Hope_Carter" data-name="Hope Carter" transform="translate(66 179)" fill="#517fad" font-size="17" font-family="Arial-BoldMT, Arial" font-weight="700"><tspan x="0" y="0">Hope Carter</tspan></text>
      <text id="Mother" transform="translate(66 197)" fill="#8ba9c8" font-size="13" font-family="Helvetica"><tspan x="0" y="0">Mother</tspan></text>
      <g id="Forward_arrow_small" data-name="Forward arrow small" transform="translate(4 -453)">
        <path id="Path_36" data-name="Path 36" d="M6.7,8.1,2,3.4,3.4,2,6.7,5.3,10,2l1.4,1.4Z" transform="translate(343 644.401) rotate(-90)" fill="#517fad"/>
        <rect id="Rectangle_1465" data-name="Rectangle 1465" width="10" height="10" transform="translate(343 633)" fill="none"/>
      </g>
      <path id="Path_2067" data-name="Path 2067" d="M2903,3163.562h350.377" transform="translate(-2877 -2937)" fill="none" stroke="#707070" stroke-width="1" opacity="0.2"/>
      <g id="Group_2416" data-name="Group 2416" transform="translate(-926 5)">
        <g id="Group_2417" data-name="Group 2417">
          <g id="Repeat_Grid_4" data-name="Repeat Grid 4" transform="translate(1176 163)" clip-path="url(#clip-path)">
            <g transform="translate(-1140 -160)">
              <g id="Path_2088-2" data-name="Path 2088" transform="translate(918 159)" fill="#fff">
                <path d="M 15 29.5 C 11.12691020965576 29.5 7.485640048980713 27.99173927307129 4.746950149536133 25.25304985046387 C 2.008260011672974 22.51436042785645 0.5 18.87309074401855 0.5 15 C 0.5 11.12691020965576 2.008260011672974 7.485640048980713 4.746950149536133 4.746950149536133 C 7.485640048980713 2.008260011672974 11.12691020965576 0.5 15 0.5 C 18.87309074401855 0.5 22.51436042785645 2.008260011672974 25.25304985046387 4.746950149536133 C 27.99173927307129 7.485640048980713 29.5 11.12691020965576 29.5 15 C 29.5 18.87309074401855 27.99173927307129 22.51436042785645 25.25304985046387 25.25304985046387 C 22.51436042785645 27.99173927307129 18.87309074401855 29.5 15 29.5 Z" stroke="none"/>
                <path d="M 15 1 C 11.26046943664551 1 7.744760513305664 2.456249237060547 5.100509643554688 5.100509643554688 C 2.456249237060547 7.744760513305664 1 11.26046943664551 1 15 C 1 18.73952865600586 2.456249237060547 22.25523948669434 5.100509643554688 24.89949035644531 C 7.744760513305664 27.54375076293945 11.26046943664551 29 15 29 C 18.73952865600586 29 22.25523948669434 27.54375076293945 24.89949035644531 24.89949035644531 C 27.54375076293945 22.25523948669434 29 18.73952865600586 29 15 C 29 11.26046943664551 27.54375076293945 7.744760513305664 24.89949035644531 5.100509643554688 C 22.25523948669434 2.456249237060547 18.73952865600586 1 15 1 M 15 0 C 23.28426933288574 0 30 6.715730667114258 30 15 C 30 23.28426933288574 23.28426933288574 30 15 30 C 6.715730667114258 30 0 23.28426933288574 0 15 C 0 6.715730667114258 6.715730667114258 0 15 0 Z" stroke="none" fill="#848484"/>
              </g>
            </g>
          </g>
        </g>
      </g>
    </g>
    <g id="Group_2413-2" data-name="Group 2413" transform="translate(0 163)">
      <g id="Path_2088-3" data-name="Path 2088" transform="translate(26 167)" fill="#fff">
        <path d="M 15 29.5 C 11.12691020965576 29.5 7.485640048980713 27.99173927307129 4.746950149536133 25.25304985046387 C 2.008260011672974 22.51436042785645 0.5 18.87309074401855 0.5 15 C 0.5 11.12691020965576 2.008260011672974 7.485640048980713 4.746950149536133 4.746950149536133 C 7.485640048980713 2.008260011672974 11.12691020965576 0.5 15 0.5 C 18.87309074401855 0.5 22.51436042785645 2.008260011672974 25.25304985046387 4.746950149536133 C 27.99173927307129 7.485640048980713 29.5 11.12691020965576 29.5 15 C 29.5 18.87309074401855 27.99173927307129 22.51436042785645 25.25304985046387 25.25304985046387 C 22.51436042785645 27.99173927307129 18.87309074401855 29.5 15 29.5 Z" stroke="none"/>
        <path d="M 15 1 C 11.26046943664551 1 7.744760513305664 2.456249237060547 5.100509643554688 5.100509643554688 C 2.456249237060547 7.744760513305664 1 11.26046943664551 1 15 C 1 18.73952865600586 2.456249237060547 22.25523948669434 5.100509643554688 24.89949035644531 C 7.744760513305664 27.54375076293945 11.26046943664551 29 15 29 C 18.73952865600586 29 22.25523948669434 27.54375076293945 24.89949035644531 24.89949035644531 C 27.54375076293945 22.25523948669434 29 18.73952865600586 29 15 C 29 11.26046943664551 27.54375076293945 7.744760513305664 24.89949035644531 5.100509643554688 C 22.25523948669434 2.456249237060547 18.73952865600586 1 15 1 M 15 0 C 23.28426933288574 0 30 6.715730667114258 30 15 C 30 23.28426933288574 23.28426933288574 30 15 30 C 6.715730667114258 30 0 23.28426933288574 0 15 C 0 6.715730667114258 6.715730667114258 0 15 0 Z" stroke="none" fill="#848484"/>
      </g>
      <text id="Peter_Carter" data-name="Peter Carter" transform="translate(66 179)" fill="#517fad" font-size="17" font-family="Arial-BoldMT, Arial" font-weight="700"><tspan x="0" y="0">Peter Carter</tspan></text>
      <text id="Father" transform="translate(66 197)" fill="#8ba9c8" font-size="13" font-family="Helvetica"><tspan x="0" y="0">Father</tspan></text>
      <g id="Forward_arrow_small-2" data-name="Forward arrow small" transform="translate(4 -453)">
        <path id="Path_36-2" data-name="Path 36" d="M6.7,8.1,2,3.4,3.4,2,6.7,5.3,10,2l1.4,1.4Z" transform="translate(343 644.401) rotate(-90)" fill="#517fad"/>
        <rect id="Rectangle_1465-2" data-name="Rectangle 1465" width="10" height="10" transform="translate(343 633)" fill="none"/>
      </g>
      <path id="Path_2067-2" data-name="Path 2067" d="M2903,3163.562h350.377" transform="translate(-2877 -2937)" fill="none" stroke="#707070" stroke-width="1" opacity="0.2"/>
      <g id="Group_2416-2" data-name="Group 2416" transform="translate(-926 5)">
        <g id="Group_2417-2" data-name="Group 2417">
          <g id="Repeat_Grid_4-2" data-name="Repeat Grid 4" transform="translate(1176 163)" clip-path="url(#clip-path)">
            <g transform="translate(-1140 -160)">
              <g id="Path_2088-4" data-name="Path 2088" transform="translate(918 159)" fill="#fff">
                <path d="M 15 29.5 C 11.12691020965576 29.5 7.485640048980713 27.99173927307129 4.746950149536133 25.25304985046387 C 2.008260011672974 22.51436042785645 0.5 18.87309074401855 0.5 15 C 0.5 11.12691020965576 2.008260011672974 7.485640048980713 4.746950149536133 4.746950149536133 C 7.485640048980713 2.008260011672974 11.12691020965576 0.5 15 0.5 C 18.87309074401855 0.5 22.51436042785645 2.008260011672974 25.25304985046387 4.746950149536133 C 27.99173927307129 7.485640048980713 29.5 11.12691020965576 29.5 15 C 29.5 18.87309074401855 27.99173927307129 22.51436042785645 25.25304985046387 25.25304985046387 C 22.51436042785645 27.99173927307129 18.87309074401855 29.5 15 29.5 Z" stroke="none"/>
                <path d="M 15 1 C 11.26046943664551 1 7.744760513305664 2.456249237060547 5.100509643554688 5.100509643554688 C 2.456249237060547 7.744760513305664 1 11.26046943664551 1 15 C 1 18.73952865600586 2.456249237060547 22.25523948669434 5.100509643554688 24.89949035644531 C 7.744760513305664 27.54375076293945 11.26046943664551 29 15 29 C 18.73952865600586 29 22.25523948669434 27.54375076293945 24.89949035644531 24.89949035644531 C 27.54375076293945 22.25523948669434 29 18.73952865600586 29 15 C 29 11.26046943664551 27.54375076293945 7.744760513305664 24.89949035644531 5.100509643554688 C 22.25523948669434 2.456249237060547 18.73952865600586 1 15 1 M 15 0 C 23.28426933288574 0 30 6.715730667114258 30 15 C 30 23.28426933288574 23.28426933288574 30 15 30 C 6.715730667114258 30 0 23.28426933288574 0 15 C 0 6.715730667114258 6.715730667114258 0 15 0 Z" stroke="none" fill="#848484"/>
              </g>
            </g>
          </g>
        </g>
      </g>
    </g>
    <g id="Group_2413-3" data-name="Group 2413" transform="translate(0 246)">
      <g id="Path_2088-5" data-name="Path 2088" transform="translate(26 167)" fill="#fff">
        <path d="M 15 29.5 C 11.12691020965576 29.5 7.485640048980713 27.99173927307129 4.746950149536133 25.25304985046387 C 2.008260011672974 22.51436042785645 0.5 18.87309074401855 0.5 15 C 0.5 11.12691020965576 2.008260011672974 7.485640048980713 4.746950149536133 4.746950149536133 C 7.485640048980713 2.008260011672974 11.12691020965576 0.5 15 0.5 C 18.87309074401855 0.5 22.51436042785645 2.008260011672974 25.25304985046387 4.746950149536133 C 27.99173927307129 7.485640048980713 29.5 11.12691020965576 29.5 15 C 29.5 18.87309074401855 27.99173927307129 22.51436042785645 25.25304985046387 25.25304985046387 C 22.51436042785645 27.99173927307129 18.87309074401855 29.5 15 29.5 Z" stroke="none"/>
        <path d="M 15 1 C 11.26046943664551 1 7.744760513305664 2.456249237060547 5.100509643554688 5.100509643554688 C 2.456249237060547 7.744760513305664 1 11.26046943664551 1 15 C 1 18.73952865600586 2.456249237060547 22.25523948669434 5.100509643554688 24.89949035644531 C 7.744760513305664 27.54375076293945 11.26046943664551 29 15 29 C 18.73952865600586 29 22.25523948669434 27.54375076293945 24.89949035644531 24.89949035644531 C 27.54375076293945 22.25523948669434 29 18.73952865600586 29 15 C 29 11.26046943664551 27.54375076293945 7.744760513305664 24.89949035644531 5.100509643554688 C 22.25523948669434 2.456249237060547 18.73952865600586 1 15 1 M 15 0 C 23.28426933288574 0 30 6.715730667114258 30 15 C 30 23.28426933288574 23.28426933288574 30 15 30 C 6.715730667114258 30 0 23.28426933288574 0 15 C 0 6.715730667114258 6.715730667114258 0 15 0 Z" stroke="none" fill="#848484"/>
      </g>
      <text id="Jesse_Carter" data-name="Jesse Carter" transform="translate(66 179)" fill="#517fad" font-size="17" font-family="Arial-BoldMT, Arial" font-weight="700"><tspan x="0" y="0">Jesse Carter</tspan></text>
      <text id="Daughter" transform="translate(66 197)" fill="#8ba9c8" font-size="13" font-family="Helvetica"><tspan x="0" y="0">Daughter</tspan></text>
      <g id="Forward_arrow_small-3" data-name="Forward arrow small" transform="translate(4 -453)">
        <path id="Path_36-3" data-name="Path 36" d="M6.7,8.1,2,3.4,3.4,2,6.7,5.3,10,2l1.4,1.4Z" transform="translate(343 644.401) rotate(-90)" fill="#517fad"/>
        <rect id="Rectangle_1465-3" data-name="Rectangle 1465" width="10" height="10" transform="translate(343 633)" fill="none"/>
      </g>
      <path id="Path_2067-3" data-name="Path 2067" d="M2903,3163.562h350.377" transform="translate(-2877 -2937)" fill="none" stroke="#707070" stroke-width="1" opacity="0.2"/>
      <g id="Group_2416-3" data-name="Group 2416" transform="translate(-926 5)">
        <g id="Group_2417-3" data-name="Group 2417">
          <g id="Repeat_Grid_4-3" data-name="Repeat Grid 4" transform="translate(1176 163)" clip-path="url(#clip-path)">
            <g transform="translate(-1140 -160)">
              <g id="Path_2088-6" data-name="Path 2088" transform="translate(918 159)" fill="#fff">
                <path d="M 15 29.5 C 11.12691020965576 29.5 7.485640048980713 27.99173927307129 4.746950149536133 25.25304985046387 C 2.008260011672974 22.51436042785645 0.5 18.87309074401855 0.5 15 C 0.5 11.12691020965576 2.008260011672974 7.485640048980713 4.746950149536133 4.746950149536133 C 7.485640048980713 2.008260011672974 11.12691020965576 0.5 15 0.5 C 18.87309074401855 0.5 22.51436042785645 2.008260011672974 25.25304985046387 4.746950149536133 C 27.99173927307129 7.485640048980713 29.5 11.12691020965576 29.5 15 C 29.5 18.87309074401855 27.99173927307129 22.51436042785645 25.25304985046387 25.25304985046387 C 22.51436042785645 27.99173927307129 18.87309074401855 29.5 15 29.5 Z" stroke="none"/>
                <path d="M 15 1 C 11.26046943664551 1 7.744760513305664 2.456249237060547 5.100509643554688 5.100509643554688 C 2.456249237060547 7.744760513305664 1 11.26046943664551 1 15 C 1 18.73952865600586 2.456249237060547 22.25523948669434 5.100509643554688 24.89949035644531 C 7.744760513305664 27.54375076293945 11.26046943664551 29 15 29 C 18.73952865600586 29 22.25523948669434 27.54375076293945 24.89949035644531 24.89949035644531 C 27.54375076293945 22.25523948669434 29 18.73952865600586 29 15 C 29 11.26046943664551 27.54375076293945 7.744760513305664 24.89949035644531 5.100509643554688 C 22.25523948669434 2.456249237060547 18.73952865600586 1 15 1 M 15 0 C 23.28426933288574 0 30 6.715730667114258 30 15 C 30 23.28426933288574 23.28426933288574 30 15 30 C 6.715730667114258 30 0 23.28426933288574 0 15 C 0 6.715730667114258 6.715730667114258 0 15 0 Z" stroke="none" fill="#848484"/>
              </g>
            </g>
          </g>
        </g>
      </g>
    </g>
    <g id="Group_2413-4" data-name="Group 2413" transform="translate(0 329)">
      <g id="Path_2088-7" data-name="Path 2088" transform="translate(26 167)" fill="#fff">
        <path d="M 15 29.5 C 11.12691020965576 29.5 7.485640048980713 27.99173927307129 4.746950149536133 25.25304985046387 C 2.008260011672974 22.51436042785645 0.5 18.87309074401855 0.5 15 C 0.5 11.12691020965576 2.008260011672974 7.485640048980713 4.746950149536133 4.746950149536133 C 7.485640048980713 2.008260011672974 11.12691020965576 0.5 15 0.5 C 18.87309074401855 0.5 22.51436042785645 2.008260011672974 25.25304985046387 4.746950149536133 C 27.99173927307129 7.485640048980713 29.5 11.12691020965576 29.5 15 C 29.5 18.87309074401855 27.99173927307129 22.51436042785645 25.25304985046387 25.25304985046387 C 22.51436042785645 27.99173927307129 18.87309074401855 29.5 15 29.5 Z" stroke="none"/>
        <path d="M 15 1 C 11.26046943664551 1 7.744760513305664 2.456249237060547 5.100509643554688 5.100509643554688 C 2.456249237060547 7.744760513305664 1 11.26046943664551 1 15 C 1 18.73952865600586 2.456249237060547 22.25523948669434 5.100509643554688 24.89949035644531 C 7.744760513305664 27.54375076293945 11.26046943664551 29 15 29 C 18.73952865600586 29 22.25523948669434 27.54375076293945 24.89949035644531 24.89949035644531 C 27.54375076293945 22.25523948669434 29 18.73952865600586 29 15 C 29 11.26046943664551 27.54375076293945 7.744760513305664 24.89949035644531 5.100509643554688 C 22.25523948669434 2.456249237060547 18.73952865600586 1 15 1 M 15 0 C 23.28426933288574 0 30 6.715730667114258 30 15 C 30 23.28426933288574 23.28426933288574 30 15 30 C 6.715730667114258 30 0 23.28426933288574 0 15 C 0 6.715730667114258 6.715730667114258 0 15 0 Z" stroke="none" fill="#848484"/>
      </g>
      <text id="John_Carter" data-name="John Carter" transform="translate(66 179)" fill="#517fad" font-size="17" font-family="Arial-BoldMT, Arial" font-weight="700"><tspan x="0" y="0">John Carter</tspan></text>
      <text id="Son" transform="translate(66 197)" fill="#8ba9c8" font-size="13" font-family="Helvetica"><tspan x="0" y="0">Son</tspan></text>
      <g id="Forward_arrow_small-4" data-name="Forward arrow small" transform="translate(4 -453)">
        <path id="Path_36-4" data-name="Path 36" d="M6.7,8.1,2,3.4,3.4,2,6.7,5.3,10,2l1.4,1.4Z" transform="translate(343 644.401) rotate(-90)" fill="#517fad"/>
        <rect id="Rectangle_1465-4" data-name="Rectangle 1465" width="10" height="10" transform="translate(343 633)" fill="none"/>
      </g>
      <path id="Path_2067-4" data-name="Path 2067" d="M2903,3163.562h350.377" transform="translate(-2877 -2937)" fill="none" stroke="#707070" stroke-width="1" opacity="0.2"/>
      <g id="Group_2416-4" data-name="Group 2416" transform="translate(-926 5)">
        <g id="Group_2417-4" data-name="Group 2417">
          <g id="Repeat_Grid_4-4" data-name="Repeat Grid 4" transform="translate(1176 163)" clip-path="url(#clip-path)">
            <g transform="translate(-1140 -160)">
              <g id="Path_2088-8" data-name="Path 2088" transform="translate(918 159)" fill="#fff">
                <path d="M 15 29.5 C 11.12691020965576 29.5 7.485640048980713 27.99173927307129 4.746950149536133 25.25304985046387 C 2.008260011672974 22.51436042785645 0.5 18.87309074401855 0.5 15 C 0.5 11.12691020965576 2.008260011672974 7.485640048980713 4.746950149536133 4.746950149536133 C 7.485640048980713 2.008260011672974 11.12691020965576 0.5 15 0.5 C 18.87309074401855 0.5 22.51436042785645 2.008260011672974 25.25304985046387 4.746950149536133 C 27.99173927307129 7.485640048980713 29.5 11.12691020965576 29.5 15 C 29.5 18.87309074401855 27.99173927307129 22.51436042785645 25.25304985046387 25.25304985046387 C 22.51436042785645 27.99173927307129 18.87309074401855 29.5 15 29.5 Z" stroke="none"/>
                <path d="M 15 1 C 11.26046943664551 1 7.744760513305664 2.456249237060547 5.100509643554688 5.100509643554688 C 2.456249237060547 7.744760513305664 1 11.26046943664551 1 15 C 1 18.73952865600586 2.456249237060547 22.25523948669434 5.100509643554688 24.89949035644531 C 7.744760513305664 27.54375076293945 11.26046943664551 29 15 29 C 18.73952865600586 29 22.25523948669434 27.54375076293945 24.89949035644531 24.89949035644531 C 27.54375076293945 22.25523948669434 29 18.73952865600586 29 15 C 29 11.26046943664551 27.54375076293945 7.744760513305664 24.89949035644531 5.100509643554688 C 22.25523948669434 2.456249237060547 18.73952865600586 1 15 1 M 15 0 C 23.28426933288574 0 30 6.715730667114258 30 15 C 30 23.28426933288574 23.28426933288574 30 15 30 C 6.715730667114258 30 0 23.28426933288574 0 15 C 0 6.715730667114258 6.715730667114258 0 15 0 Z" stroke="none" fill="#848484"/>
              </g>
            </g>
          </g>
        </g>
      </g>
    </g>
    <g id="Group_2413-5" data-name="Group 2413" transform="translate(0 412)">
      <g id="Path_2088-9" data-name="Path 2088" transform="translate(26 167)" fill="#fff">
        <path d="M 15 29.5 C 11.12691020965576 29.5 7.485640048980713 27.99173927307129 4.746950149536133 25.25304985046387 C 2.008260011672974 22.51436042785645 0.5 18.87309074401855 0.5 15 C 0.5 11.12691020965576 2.008260011672974 7.485640048980713 4.746950149536133 4.746950149536133 C 7.485640048980713 2.008260011672974 11.12691020965576 0.5 15 0.5 C 18.87309074401855 0.5 22.51436042785645 2.008260011672974 25.25304985046387 4.746950149536133 C 27.99173927307129 7.485640048980713 29.5 11.12691020965576 29.5 15 C 29.5 18.87309074401855 27.99173927307129 22.51436042785645 25.25304985046387 25.25304985046387 C 22.51436042785645 27.99173927307129 18.87309074401855 29.5 15 29.5 Z" stroke="none"/>
        <path d="M 15 1 C 11.26046943664551 1 7.744760513305664 2.456249237060547 5.100509643554688 5.100509643554688 C 2.456249237060547 7.744760513305664 1 11.26046943664551 1 15 C 1 18.73952865600586 2.456249237060547 22.25523948669434 5.100509643554688 24.89949035644531 C 7.744760513305664 27.54375076293945 11.26046943664551 29 15 29 C 18.73952865600586 29 22.25523948669434 27.54375076293945 24.89949035644531 24.89949035644531 C 27.54375076293945 22.25523948669434 29 18.73952865600586 29 15 C 29 11.26046943664551 27.54375076293945 7.744760513305664 24.89949035644531 5.100509643554688 C 22.25523948669434 2.456249237060547 18.73952865600586 1 15 1 M 15 0 C 23.28426933288574 0 30 6.715730667114258 30 15 C 30 23.28426933288574 23.28426933288574 30 15 30 C 6.715730667114258 30 0 23.28426933288574 0 15 C 0 6.715730667114258 6.715730667114258 0 15 0 Z" stroke="none" fill="#848484"/>
      </g>
      <text id="Sarah_Johnson" data-name="Sarah Johnson" transform="translate(66 179)" fill="#517fad" font-size="17" font-family="Arial-BoldMT, Arial" font-weight="700"><tspan x="0" y="0">Sarah Johnson</tspan></text>
      <text id="Mother_of_Hope" data-name="Mother of Hope" transform="translate(66 197)" fill="#8ba9c8" font-size="13" font-family="Helvetica"><tspan x="0" y="0">Mother of Hope</tspan></text>
      <g id="Forward_arrow_small-5" data-name="Forward arrow small" transform="translate(4 -453)">
        <path id="Path_36-5" data-name="Path 36" d="M6.7,8.1,2,3.4,3.4,2,6.7,5.3,10,2l1.4,1.4Z" transform="translate(343 644.401) rotate(-90)" fill="#517fad"/>
        <rect id="Rectangle_1465-5" data-name="Rectangle 1465" width="10" height="10" transform="translate(343 633)" fill="none"/>
      </g>
      <path id="Path_2067-5" data-name="Path 2067" d="M2903,3163.562h350.377" transform="translate(-2877 -2937)" fill="none" stroke="#707070" stroke-width="1" opacity="0.2"/>
      <g id="Group_2416-5" data-name="Group 2416" transform="translate(-926 5)">
        <g id="Group_2417-5" data-name="Group 2417">
          <g id="Repeat_Grid_4-5" data-name="Repeat Grid 4" transform="translate(1176 163)" clip-path="url(#clip-path)">
            <g transform="translate(-1140 -160)">
              <g id="Path_2088-10" data-name="Path 2088" transform="translate(918 159)" fill="#fff">
                <path d="M 15 29.5 C 11.12691020965576 29.5 7.485640048980713 27.99173927307129 4.746950149536133 25.25304985046387 C 2.008260011672974 22.51436042785645 0.5 18.87309074401855 0.5 15 C 0.5 11.12691020965576 2.008260011672974 7.485640048980713 4.746950149536133 4.746950149536133 C 7.485640048980713 2.008260011672974 11.12691020965576 0.5 15 0.5 C 18.87309074401855 0.5 22.51436042785645 2.008260011672974 25.25304985046387 4.746950149536133 C 27.99173927307129 7.485640048980713 29.5 11.12691020965576 29.5 15 C 29.5 18.87309074401855 27.99173927307129 22.51436042785645 25.25304985046387 25.25304985046387 C 22.51436042785645 27.99173927307129 18.87309074401855 29.5 15 29.5 Z" stroke="none"/>
                <path d="M 15 1 C 11.26046943664551 1 7.744760513305664 2.456249237060547 5.100509643554688 5.100509643554688 C 2.456249237060547 7.744760513305664 1 11.26046943664551 1 15 C 1 18.73952865600586 2.456249237060547 22.25523948669434 5.100509643554688 24.89949035644531 C 7.744760513305664 27.54375076293945 11.26046943664551 29 15 29 C 18.73952865600586 29 22.25523948669434 27.54375076293945 24.89949035644531 24.89949035644531 C 27.54375076293945 22.25523948669434 29 18.73952865600586 29 15 C 29 11.26046943664551 27.54375076293945 7.744760513305664 24.89949035644531 5.100509643554688 C 22.25523948669434 2.456249237060547 18.73952865600586 1 15 1 M 15 0 C 23.28426933288574 0 30 6.715730667114258 30 15 C 30 23.28426933288574 23.28426933288574 30 15 30 C 6.715730667114258 30 0 23.28426933288574 0 15 C 0 6.715730667114258 6.715730667114258 0 15 0 Z" stroke="none" fill="#848484"/>
              </g>
            </g>
          </g>
        </g>
      </g>
    </g>
    <g id="Button" transform="translate(0 233)">
      <rect id="Rectangle_112" data-name="Rectangle 112" width="324" height="48" rx="4" transform="translate(24 409)" fill="#517fad"/>
      <text id="NEXT" transform="translate(186 438)" fill="#fff" font-size="14" font-family="Helvetica"><tspan x="-18.669" y="0">NEXT</tspan></text>
    </g>
    <text id="The_Carter_Family_" data-name="The Carter Family " transform="translate(71 167)" fill="#517fad" font-size="30" font-family="Helvetica-Bold, Helvetica" font-weight="700"><tspan x="0" y="0">The Carter Family </tspan></text>
  </g>
</svg>
