<svg xmlns="http://www.w3.org/2000/svg" xmlns:xlink="http://www.w3.org/1999/xlink" width="375" height="812" viewBox="0 0 375 812">
  <defs>
    <clipPath id="clip-path">
      <rect width="350.377" height="375.562" fill="none"/>
    </clipPath>
    <clipPath id="clip-BookAppt">
      <rect width="375" height="812"/>
    </clipPath>
  </defs>
  <g id="BookAppt" clip-path="url(#clip-BookAppt)">
    <rect width="375" height="812" fill="#fff"/>
    <g id="Group_2411" data-name="Group 2411" transform="translate(0 -34)">
      <rect id="Background" width="375" height="140.523" transform="translate(0 0)" fill="#648db6"/>
      <line id="Separator" x2="375" transform="translate(0 140.773)" fill="none" stroke="rgba(0,0,0,0.3)" stroke-width="0.5"/>
      <text id="Large_Title" data-name="Large Title" transform="translate(16 78)" fill="#fff" font-size="34" font-family="Helvetica-Bold, Helvetica" font-weight="700" letter-spacing="0em"><tspan x="120.479" y="26">BOOK </tspan></text>
    </g>
    <g id="Repeat_Grid_3" data-name="Repeat Grid 3" transform="translate(26 244)" clip-path="url(#clip-path)">
      <g id="Group_2413" data-name="Group 2413" transform="translate(-26 -164)">
        <g id="Radio_button_-_Empty" data-name="Radio button - Empty" transform="translate(-1114 7)">
          <g id="Rectangle_577" data-name="Rectangle 577" transform="translate(1140 160)" fill="#fff" stroke="#848484" stroke-width="1">
            <rect width="30" height="30" rx="15" stroke="none"/>
            <rect x="0.5" y="0.5" width="29" height="29" rx="14.5" fill="none"/>
          </g>
          <text id="Hope_Carter" data-name="Hope Carter" transform="translate(1180 172)" fill="#517fad" font-size="17" font-family="Arial-BoldMT, Arial" font-weight="700"><tspan x="0" y="0">Hope Carter</tspan></text>
          <text id="Mother" transform="translate(1180 190)" fill="#8ba9c8" font-size="13" font-family="ArialMT, Arial"><tspan x="0" y="0">Mother</tspan></text>
        </g>
        <g id="Forward_arrow_small" data-name="Forward arrow small" transform="translate(4 -453)">
          <path id="Path_36" data-name="Path 36" d="M6.7,8.1,2,3.4,3.4,2,6.7,5.3,10,2l1.4,1.4Z" transform="translate(343 644.401) rotate(-90)" fill="#4d4d4d"/>
          <rect id="Rectangle_1465" data-name="Rectangle 1465" width="10" height="10" transform="translate(343 633)" fill="none"/>
        </g>
        <path id="Path_2067" data-name="Path 2067" d="M2903,3163.562h350.377" transform="translate(-2877 -2937)" fill="none" stroke="#707070" stroke-width="1" opacity="0.2"/>
      </g>
      <g id="Group_2413-2" data-name="Group 2413" transform="translate(-26 -81)">
        <g id="Radio_button_-_Empty-2" data-name="Radio button - Empty" transform="translate(-1114 7)">
          <g id="Rectangle_577-2" data-name="Rectangle 577" transform="translate(1140 160)" fill="#fff" stroke="#848484" stroke-width="1">
            <rect width="30" height="30" rx="15" stroke="none"/>
            <rect x="0.5" y="0.5" width="29" height="29" rx="14.5" fill="none"/>
          </g>
          <text id="Peter_Carter" data-name="Peter Carter" transform="translate(1180 172)" fill="#517fad" font-size="17" font-family="Arial-BoldMT, Arial" font-weight="700"><tspan x="0" y="0">Peter Carter</tspan></text>
          <text id="Father" transform="translate(1180 190)" fill="#8ba9c8" font-size="13" font-family="ArialMT, Arial"><tspan x="0" y="0">Father</tspan></text>
        </g>
        <g id="Forward_arrow_small-2" data-name="Forward arrow small" transform="translate(4 -453)">
          <path id="Path_36-2" data-name="Path 36" d="M6.7,8.1,2,3.4,3.4,2,6.7,5.3,10,2l1.4,1.4Z" transform="translate(343 644.401) rotate(-90)" fill="#4d4d4d"/>
          <rect id="Rectangle_1465-2" data-name="Rectangle 1465" width="10" height="10" transform="translate(343 633)" fill="none"/>
        </g>
        <path id="Path_2067-2" data-name="Path 2067" d="M2903,3163.562h350.377" transform="translate(-2877 -2937)" fill="none" stroke="#707070" stroke-width="1" opacity="0.2"/>
      </g>
      <g id="Group_2413-3" data-name="Group 2413" transform="translate(-26 2)">
        <g id="Radio_button_-_Empty-3" data-name="Radio button - Empty" transform="translate(-1114 7)">
          <g id="Rectangle_577-3" data-name="Rectangle 577" transform="translate(1140 160)" fill="#fff" stroke="#848484" stroke-width="1">
            <rect width="30" height="30" rx="15" stroke="none"/>
            <rect x="0.5" y="0.5" width="29" height="29" rx="14.5" fill="none"/>
          </g>
          <text id="Jesse_Carter" data-name="Jesse Carter" transform="translate(1180 172)" fill="#517fad" font-size="17" font-family="Arial-BoldMT, Arial" font-weight="700"><tspan x="0" y="0">Jesse Carter</tspan></text>
          <text id="Daughter" transform="translate(1180 190)" fill="#8ba9c8" font-size="13" font-family="ArialMT, Arial"><tspan x="0" y="0">Daughter</tspan></text>
        </g>
        <g id="Forward_arrow_small-3" data-name="Forward arrow small" transform="translate(4 -453)">
          <path id="Path_36-3" data-name="Path 36" d="M6.7,8.1,2,3.4,3.4,2,6.7,5.3,10,2l1.4,1.4Z" transform="translate(343 644.401) rotate(-90)" fill="#4d4d4d"/>
          <rect id="Rectangle_1465-3" data-name="Rectangle 1465" width="10" height="10" transform="translate(343 633)" fill="none"/>
        </g>
        <path id="Path_2067-3" data-name="Path 2067" d="M2903,3163.562h350.377" transform="translate(-2877 -2937)" fill="none" stroke="#707070" stroke-width="1" opacity="0.2"/>
      </g>
      <g id="Group_2413-4" data-name="Group 2413" transform="translate(-26 85)">
        <g id="Radio_button_-_Empty-4" data-name="Radio button - Empty" transform="translate(-1114 7)">
          <g id="Rectangle_577-4" data-name="Rectangle 577" transform="translate(1140 160)" fill="#fff" stroke="#848484" stroke-width="1">
            <rect width="30" height="30" rx="15" stroke="none"/>
            <rect x="0.5" y="0.5" width="29" height="29" rx="14.5" fill="none"/>
          </g>
          <text id="John_Carter" data-name="John Carter" transform="translate(1180 172)" fill="#517fad" font-size="17" font-family="Arial-BoldMT, Arial" font-weight="700"><tspan x="0" y="0">John Carter</tspan></text>
          <text id="Son" transform="translate(1180 190)" fill="#8ba9c8" font-size="13" font-family="ArialMT, Arial"><tspan x="0" y="0">Son</tspan></text>
        </g>
        <g id="Forward_arrow_small-4" data-name="Forward arrow small" transform="translate(4 -453)">
          <path id="Path_36-4" data-name="Path 36" d="M6.7,8.1,2,3.4,3.4,2,6.7,5.3,10,2l1.4,1.4Z" transform="translate(343 644.401) rotate(-90)" fill="#4d4d4d"/>
          <rect id="Rectangle_1465-4" data-name="Rectangle 1465" width="10" height="10" transform="translate(343 633)" fill="none"/>
        </g>
        <path id="Path_2067-4" data-name="Path 2067" d="M2903,3163.562h350.377" transform="translate(-2877 -2937)" fill="none" stroke="#707070" stroke-width="1" opacity="0.2"/>
      </g>
      <g id="Group_2413-5" data-name="Group 2413" transform="translate(-26 168)">
        <g id="Radio_button_-_Empty-5" data-name="Radio button - Empty" transform="translate(-1114 7)">
          <g id="Rectangle_577-5" data-name="Rectangle 577" transform="translate(1140 160)" fill="#fff" stroke="#848484" stroke-width="1">
            <rect width="30" height="30" rx="15" stroke="none"/>
            <rect x="0.5" y="0.5" width="29" height="29" rx="14.5" fill="none"/>
          </g>
          <text id="Sarah_Brown" data-name="Sarah Brown" transform="translate(1180 172)" fill="#517fad" font-size="17" font-family="Arial-BoldMT, Arial" font-weight="700"><tspan x="0" y="0">Sarah Brown</tspan></text>
          <text id="Mother_of_Hope" data-name="Mother of Hope" transform="translate(1180 190)" fill="#8ba9c8" font-size="13" font-family="ArialMT, Arial"><tspan x="0" y="0">Mother of Hope</tspan></text>
        </g>
        <g id="Forward_arrow_small-5" data-name="Forward arrow small" transform="translate(4 -453)">
          <path id="Path_36-5" data-name="Path 36" d="M6.7,8.1,2,3.4,3.4,2,6.7,5.3,10,2l1.4,1.4Z" transform="translate(343 644.401) rotate(-90)" fill="#4d4d4d"/>
          <rect id="Rectangle_1465-5" data-name="Rectangle 1465" width="10" height="10" transform="translate(343 633)" fill="none"/>
        </g>
        <path id="Path_2067-5" data-name="Path 2067" d="M2903,3163.562h350.377" transform="translate(-2877 -2937)" fill="none" stroke="#707070" stroke-width="1" opacity="0.2"/>
      </g>
    </g>
    <g id="Button" transform="translate(0 233)">
      <rect id="Rectangle_112" data-name="Rectangle 112" width="324" height="48" rx="4" transform="translate(24 409)" fill="#517fad"/>
      <text id="NEXT" transform="translate(186 438)" fill="#fff" font-size="14" font-family="Helvetica"><tspan x="-18.669" y="0">NEXT</tspan></text>
    </g>
    <text id="The_Carter_Family_" data-name="The Carter Family " transform="translate(56 179)" fill="#517fad" font-size="30" font-family="Helvetica"><tspan x="0" y="0">The Carter Family </tspan></text>
  </g>
</svg>
