<svg xmlns="http://www.w3.org/2000/svg" xmlns:xlink="http://www.w3.org/1999/xlink" width="375" height="812" viewBox="0 0 375 812">
  <defs>
    <clipPath id="clip-path">
      <path id="Path_2034" data-name="Path 2034" d="M0-44H375V-3H0Z" fill="none" clip-rule="evenodd"/>
    </clipPath>
    <clipPath id="clip-path-2">
      <path id="Path_2033" data-name="Path 2033" d="M0,768H375V-44H0Z" fill="none"/>
    </clipPath>
    <clipPath id="clip-path-3">
      <rect id="Rectangle_1499" data-name="Rectangle 1499" width="375" height="383" transform="translate(21 356)" fill="#f5f5f5"/>
    </clipPath>
    <clipPath id="clip-Calendar">
      <rect width="375" height="812"/>
    </clipPath>
  </defs>
  <g id="Calendar" clip-path="url(#clip-Calendar)">
    <rect width="375" height="812" fill="#fff"/>
    <g id="Group_2411" data-name="Group 2411">
      <rect id="Background" width="375" height="113.523" transform="translate(0 0)" fill="rgba(248,248,248,0.82)"/>
      <line id="Separator" x2="375" transform="translate(0 114.773)" fill="none" stroke="rgba(0,0,0,0.3)" stroke-width="0.5"/>
      <text id="Title" transform="translate(32 58)" fill="#517fad" font-size="17" font-family="Helvetica-Bold, Helvetica" font-weight="700" letter-spacing="0em"><tspan x="97.131" y="13">SELECT DATE</tspan></text>
    </g>
    <g id="status_bar">
      <g id="Group_2377" data-name="Group 2377" transform="translate(0 44)" clip-path="url(#clip-path)">
        <g id="Group_2376" data-name="Group 2376" clip-path="url(#clip-path-2)">
          <path id="Path_2032" data-name="Path 2032" d="M-5-49H380V2H-5Z" fill="none"/>
        </g>
      </g>
    </g>
    <g id="Component_35_1" data-name="Component 35 – 1" transform="translate(0 220)">
      <path id="Path_2081" data-name="Path 2081" d="M0,0H375V383H0Z" fill="#d8e2ec"/>
      <text id="_30" data-name="30" transform="translate(236.156 301)" font-size="15" font-family="Helvetica" letter-spacing="0em"><tspan x="0" y="0">30</tspan></text>
      <text id="_29" data-name="29" transform="translate(176.155 301)" font-size="15" font-family="Helvetica" letter-spacing="0em"><tspan x="0" y="0">29</tspan></text>
      <text id="_28" data-name="28" transform="translate(123.155 303)" font-size="15" font-family="Helvetica" letter-spacing="0em"><tspan x="0" y="0">28</tspan></text>
      <text id="_27" data-name="27" transform="translate(70.156 303)" font-size="15" font-family="Helvetica" letter-spacing="0em"><tspan x="0" y="0">27</tspan></text>
      <text id="_26" data-name="26" transform="translate(25.156 303)" font-size="15" font-family="Helvetica" letter-spacing="0em"><tspan x="0" y="0">26</tspan></text>
      <text id="_25" data-name="25" transform="translate(335.156 255)" font-size="15" font-family="Helvetica" letter-spacing="0em"><tspan x="0" y="0">25</tspan></text>
      <text id="_24" data-name="24" transform="translate(281.156 257)" font-size="15" font-family="Helvetica" letter-spacing="0em"><tspan x="0" y="0">24</tspan></text>
      <text id="_23" data-name="23" transform="translate(236.156 255)" font-size="15" font-family="Helvetica" letter-spacing="0em"><tspan x="0" y="0">23</tspan></text>
      <text id="_22" data-name="22" transform="translate(182.155 255)" font-size="15" font-family="Helvetica" letter-spacing="0em"><tspan x="0" y="0">22</tspan></text>
      <text id="_21" data-name="21" transform="translate(132.155 257)" font-size="15" font-family="Helvetica" letter-spacing="0em" opacity="0.2"><tspan x="0" y="0">21</tspan></text>
      <text id="_20" data-name="20" transform="translate(78.156 257)" font-size="15" font-family="Helvetica" letter-spacing="0em"><tspan x="0" y="0">20</tspan></text>
      <text id="_19" data-name="19" transform="translate(28.156 257)" font-size="15" font-family="Helvetica" letter-spacing="0em"><tspan x="0" y="0">19</tspan></text>
      <path id="Path_1756" data-name="Path 1756" d="M3052-2297a15,15,0,0,0,15-15,15,15,0,0,0-15-15,15,15,0,0,0-15,15A15,15,0,0,0,3052-2297Z" transform="translate(-2765 2519)" fill="#517fad" fill-rule="evenodd"/>
      <text id="_18" data-name="18" transform="translate(335.156 209)" font-size="15" font-family="Helvetica" letter-spacing="0em" opacity="0.2"><tspan x="0" y="0">18</tspan></text>
      <text id="_17" data-name="17" transform="translate(278.156 211)" fill="#fff" font-size="15" font-family="Helvetica" letter-spacing="0em"><tspan x="0" y="0">17</tspan></text>
      <text id="_16" data-name="16" transform="translate(234.156 211)" font-size="15" font-family="Helvetica" letter-spacing="0em"><tspan x="0" y="0">16</tspan></text>
      <text id="_15" data-name="15" transform="translate(181.155 209)" font-size="15" font-family="Helvetica" letter-spacing="0em"><tspan x="0" y="0">15</tspan></text>
      <text id="_14" data-name="14" transform="translate(128.155 211)" font-size="15" font-family="Helvetica" letter-spacing="0em"><tspan x="0" y="0">14</tspan></text>
      <text id="_13" data-name="13" transform="translate(75.156 211)" font-size="15" font-family="Helvetica" letter-spacing="0em" opacity="0.2"><tspan x="0" y="0">13</tspan></text>
      <text id="_12" data-name="12" transform="translate(27.156 211)" font-size="15" font-family="Helvetica" letter-spacing="0em"><tspan x="0" y="0">12</tspan></text>
      <text id="_11" data-name="11" transform="translate(330.156 158)" font-size="15" font-family="Helvetica" letter-spacing="0em"><tspan x="0" y="0">11</tspan></text>
      <text id="_10" data-name="10" transform="translate(278.156 158)" font-size="15" font-family="Helvetica" letter-spacing="0em" opacity="0.2"><tspan x="0" y="0">10</tspan></text>
      <text id="_9" data-name="9" transform="translate(235.328 158)" font-size="15" font-family="Helvetica"><tspan x="0" y="0">9</tspan></text>
      <text id="_8" data-name="8" transform="translate(186.328 158)" font-size="15" font-family="Helvetica" opacity="0.2"><tspan x="0" y="0">8</tspan></text>
      <text id="_7" data-name="7" transform="translate(132.328 158)" font-size="15" font-family="Helvetica"><tspan x="0" y="0">7</tspan></text>
      <text id="_6" data-name="6" transform="translate(78.328 158)" font-size="15" font-family="Helvetica"><tspan x="0" y="0">6</tspan></text>
      <text id="_5" data-name="5" transform="translate(29.328 158)" font-size="15" font-family="Helvetica"><tspan x="0" y="0">5</tspan></text>
      <text id="_4" data-name="4" transform="translate(331.328 112)" font-size="15" font-family="Helvetica"><tspan x="0" y="0">4</tspan></text>
      <text id="_3" data-name="3" transform="translate(283.328 112)" font-size="15" font-family="Helvetica"><tspan x="0" y="0">3</tspan></text>
      <text id="_2" data-name="2" transform="translate(235.327 112)" font-size="15" font-family="Helvetica"><tspan x="0" y="0">2</tspan></text>
      <text id="_1" data-name="1" transform="translate(183.328 112)" font-size="15" font-family="Helvetica"><tspan x="0" y="0">1</tspan></text>
      <path id="Path_1757" data-name="Path 1757" d="M.5,1.5h318" transform="translate(25 87)" fill="#030303" stroke="#adadad" stroke-linecap="square" stroke-width="1"/>
      <text id="S" transform="translate(36.944 80)" font-size="15" font-family="Helvetica-Bold, Helvetica" font-weight="700"><tspan x="0" y="0">S</tspan></text>
      <text id="M" transform="translate(85.833 80)" font-size="15" font-family="Helvetica-Bold, Helvetica" font-weight="700"><tspan x="0" y="0">M</tspan></text>
      <text id="T" transform="translate(136.719 80)" font-size="15" font-family="Helvetica-Bold, Helvetica" font-weight="700"><tspan x="0" y="0">T</tspan></text>
      <text id="W" transform="translate(184.553 80)" font-size="15" font-family="Helvetica-Bold, Helvetica" font-weight="700"><tspan x="0" y="0">W</tspan></text>
      <text id="T-2" data-name="T" transform="translate(235.719 80)" font-size="15" font-family="Helvetica-Bold, Helvetica" font-weight="700"><tspan x="0" y="0">T</tspan></text>
      <text id="F" transform="translate(283.719 80)" font-size="15" font-family="Helvetica-Bold, Helvetica" font-weight="700"><tspan x="0" y="0">F</tspan></text>
      <g id="Group_2414" data-name="Group 2414">
        <text id="S-2" data-name="S" transform="translate(331.944 80)" font-size="15" font-family="Helvetica-Bold, Helvetica" font-weight="700"><tspan x="0" y="0">S</tspan></text>
      </g>
      <text id="November_2021" data-name="November 2021" transform="translate(149.773 32)" fill="#517fad" font-size="16" font-family="Helvetica-Bold, Helvetica" font-weight="700" letter-spacing="0.031em"><tspan x="0" y="0">November 2021</tspan></text>
    </g>
    <g id="LABEL_1" data-name="LABEL 1" transform="translate(-23 -30)">
      <rect id="Rectangle_286" data-name="Rectangle 286" width="68" height="25" rx="6" transform="translate(49 705)" fill="#b7b7b7"/>
      <text id="_4_PM" data-name="4 PM" transform="translate(83 721)" font-size="10" font-family="Arial-BoldMT, Arial" font-weight="700"><tspan x="-11.67" y="0">4 PM</tspan></text>
    </g>
    <g id="LABEL_1-2" data-name="LABEL 1" transform="translate(-23 -30)">
      <rect id="Rectangle_286-2" data-name="Rectangle 286" width="68" height="25" rx="6" transform="translate(49 705)" fill="#b7b7b7"/>
      <text id="_4_PM-2" data-name="4 PM" transform="translate(83 721)" font-size="10" font-family="Arial-BoldMT, Arial" font-weight="700"><tspan x="-11.67" y="0">4 PM</tspan></text>
    </g>
    <g id="LABEL_1-3" data-name="LABEL 1" transform="translate(-23 -30)">
      <rect id="Rectangle_286-3" data-name="Rectangle 286" width="68" height="25" rx="6" transform="translate(49 705)" fill="#b7b7b7"/>
      <text id="_4_PM-3" data-name="4 PM" transform="translate(83 721)" font-size="10" font-family="Arial-BoldMT, Arial" font-weight="700"><tspan x="-11.67" y="0">4 PM</tspan></text>
    </g>
    <g id="LABEL_1-4" data-name="LABEL 1" transform="translate(-23 -30)">
      <rect id="Rectangle_286-4" data-name="Rectangle 286" width="68" height="25" rx="6" transform="translate(49 705)" fill="#b7b7b7"/>
      <text id="_11_AM" data-name="11 AM" transform="translate(83 721)" font-size="10" font-family="Arial-BoldMT, Arial" font-weight="700"><tspan x="-14.265" y="0">11 AM</tspan></text>
    </g>
    <g id="LABEL_1-5" data-name="LABEL 1" transform="translate(-23 -30)">
      <path id="Path_2086" data-name="Path 2086" d="M6,0H62a6,6,0,0,1,6,6V19a6,6,0,0,1-6,6H6a6,6,0,0,1-6-6V6A6,6,0,0,1,6,0Z" transform="translate(49 705)" fill="#517fad"/>
      <text id="_11_AM-2" data-name="11 AM" transform="translate(83 721)" fill="#fff" font-size="10" font-family="Helvetica-Bold, Helvetica" font-weight="700"><tspan x="-14.27" y="0">11 AM</tspan></text>
    </g>
    <g id="LABEL_1-6" data-name="LABEL 1" transform="translate(-23 8)">
      <rect id="Rectangle_286-5" data-name="Rectangle 286" width="68" height="25" rx="6" transform="translate(49 705)" fill="#517fad"/>
      <text id="_6_PM" data-name="6 PM" transform="translate(83 721)" fill="#fff" font-size="10" font-family="Helvetica-Bold, Helvetica" font-weight="700"><tspan x="-11.67" y="0">6 PM</tspan></text>
    </g>
    <g id="LABEL_1-7" data-name="LABEL 1" transform="translate(63 -30)">
      <rect id="Rectangle_286-6" data-name="Rectangle 286" width="68" height="25" rx="6" transform="translate(43 705)" fill="#b7b7b7"/>
      <rect id="Rectangle_1500" data-name="Rectangle 1500" width="68" height="25" rx="6" transform="translate(43 705)" fill="#517fad"/>
      <text id="_2_PM" data-name="2 PM" transform="translate(77 721)" fill="#fff" font-size="10" font-family="Helvetica-Bold, Helvetica" font-weight="700"><tspan x="-11.67" y="0">2 PM</tspan></text>
    </g>
    <g id="LABEL_1-8" data-name="LABEL 1" transform="translate(143 -30)">
      <rect id="Rectangle_286-7" data-name="Rectangle 286" width="68" height="25" rx="6" transform="translate(43 705)" fill="#b7b7b7"/>
      <rect id="Rectangle_1500-2" data-name="Rectangle 1500" width="68" height="25" rx="6" transform="translate(43 705)" fill="#b7b7b7"/>
      <text id="_4_PM-4" data-name="4 PM" transform="translate(77 721)" font-size="10" font-family="Arial-BoldMT, Arial" font-weight="700"><tspan x="-11.67" y="0">4 PM</tspan></text>
    </g>
    <g id="LABEL_1-9" data-name="LABEL 1" transform="translate(143 -30)">
      <rect id="Rectangle_286-8" data-name="Rectangle 286" width="68" height="25" rx="6" transform="translate(43 705)" fill="#b7b7b7"/>
      <rect id="Rectangle_1500-3" data-name="Rectangle 1500" width="68" height="25" rx="6" transform="translate(43 705)" fill="#517fad"/>
      <text id="_4_PM-5" data-name="4 PM" transform="translate(77 721)" fill="#fff" font-size="10" font-family="Helvetica-Bold, Helvetica" font-weight="700"><tspan x="-11.67" y="0">4 PM</tspan></text>
    </g>
    <g id="LABEL_1-10" data-name="LABEL 1" transform="translate(223 -30)">
      <rect id="Rectangle_286-9" data-name="Rectangle 286" width="68" height="25" rx="6" transform="translate(43 705)" fill="#b7b7b7"/>
      <rect id="Rectangle_1500-4" data-name="Rectangle 1500" width="68" height="25" rx="6" transform="translate(43 705)" fill="#517fad"/>
      <text id="_5_PM" data-name="5 PM" transform="translate(77 721)" fill="#fff" font-size="10" font-family="Helvetica-Bold, Helvetica" font-weight="700"><tspan x="-11.67" y="0">5 PM</tspan></text>
    </g>
    <text id="Select_Time" data-name="Select Time" transform="translate(30 647)" fill="#517fad" font-size="20" font-family="Helvetica-Bold, Helvetica" font-weight="700"><tspan x="0" y="0">Select Time</tspan></text>
    <g id="Right_Accessory" data-name="Right Accessory" transform="translate(204 48)">
      <rect id="Right_Accessory_background" data-name="Right Accessory background" width="168.917" height="44" fill="rgba(0,0,0,0)"/>
      <rect id="Button_Links_to" data-name="Button Links to" width="93" height="44" transform="translate(77)" fill="none"/>
      <text id="_Label" data-name="↳ Label" transform="translate(67.376 10)" fill="#517fad" font-size="17" font-family="Helvetica-Bold, Helvetica" font-weight="700" letter-spacing="0em"><tspan x="36.572" y="13">Select</tspan></text>
    </g>
    <g id="Left_Accessory" data-name="Left Accessory" transform="translate(-1 48)">
      <rect id="Left_Accessory_background" data-name="Left Accessory background" width="179" height="44" fill="rgba(0,0,0,0)"/>
      <rect id="Button_Links_to-2" data-name="Button Links to" width="103" height="44" fill="none"/>
      <text id="_Label-2" data-name="↳ Label" transform="translate(16 10)" fill="#517fad" font-size="17" font-family="Helvetica-Bold, Helvetica" font-weight="700" letter-spacing="0em"><tspan x="0" y="13">Cancel</tspan></text>
    </g>
    <text id="November_17" data-name="November 17" transform="translate(58 174)" fill="#517fad" font-size="17" font-family="Helvetica"><tspan x="-51.025" y="0">November 17</tspan></text>
    <text id="_11:00_AM" data-name="11:00 AM" transform="translate(42 203)" fill="#517fad" font-size="17" font-family="Helvetica"><tspan x="-35.291" y="0">11:00 AM</tspan></text>
    <text id="SELECT_Available_TIME_For_Hope_Carter" data-name="SELECT Available TIME For Hope Carter" transform="translate(7 149)" fill="#517fad" font-size="20" font-family="Helvetica-Bold, Helvetica" font-weight="700"><tspan x="0" y="0">Select Available Time For Hope Carter</tspan></text>
  </g>
</svg>
