<svg xmlns="http://www.w3.org/2000/svg" xmlns:xlink="http://www.w3.org/1999/xlink" width="375" height="812" viewBox="0 0 375 812">
  <defs>
    <clipPath id="clip-path">
      <rect width="343" height="709" fill="none"/>
    </clipPath>
    <clipPath id="clip-path-2">
      <rect width="3" height="15" fill="none"/>
    </clipPath>
    <clipPath id="clip-path-5">
      <rect width="16" height="16" fill="none"/>
    </clipPath>
    <clipPath id="clip-Reminders">
      <rect width="375" height="812"/>
    </clipPath>
  </defs>
  <g id="Reminders" clip-path="url(#clip-Reminders)">
    <rect width="375" height="812" fill="#fff"/>
    <g id="Posts" transform="translate(16 84)" clip-path="url(#clip-path)">
      <g id="Posts-2" data-name="Posts" transform="translate(-16 -84)">
        <rect id="Rectangle_234" data-name="Rectangle 234" width="343" height="112" transform="translate(16 148)" fill="#fff"/>
        <text id="Name_Surname_Lorem_ipsum_dolor_sit_amet_consectetur_adipisicing_elit_sed_do_eiusmod_tempor_incididunt." data-name="Name Surname Lorem ipsum dolor sit amet, consectetur adipisicing elit, sed do eiusmod tempor incididunt." transform="translate(120 172)" font-size="15" font-family="Helvetica-Bold, Helvetica" font-weight="700"><tspan x="0" y="12">Name Surname</tspan><tspan y="12" xml:space="preserve" font-family="Helvetica" font-weight="400"> Lorem ipsum </tspan><tspan x="0" y="36" font-family="Helvetica" font-weight="400">dolor sit amet, consectetur </tspan><tspan x="0" y="60" font-family="Helvetica" font-weight="400">adipisicing elit, sed do eiusmod </tspan></text>
        <g id="title">
          <text id="Hope_Carter_" data-name="Hope Carter " transform="translate(64 97)" fill="#517fad" font-size="18" font-family="Helvetica-Bold, Helvetica" font-weight="700"><tspan x="0" y="0">Hope Carter </tspan></text>
          <g id="Component_216_1" data-name="Component 216 – 1" transform="translate(16 85)">
            <circle id="Ellipse_234" data-name="Ellipse 234" cx="20" cy="20" r="20" fill="#9eb7d1"/>
            <path id="Union_44" data-name="Union 44" d="M0,370v-2c0-2.2,3.6-4,8-4s8,1.8,8,4v2Zm4-12a4,4,0,1,1,4,4A4,4,0,0,1,4,358Z" transform="translate(12 -342)" fill="#fff"/>
          </g>
        </g>
        <g id="Component_25_1" data-name="Component 25 – 1" transform="translate(356 97)" clip-path="url(#clip-path-2)">
          <path id="Union_1" data-name="Union 1" d="M0,13.5A1.5,1.5,0,1,1,1.5,15,1.5,1.5,0,0,1,0,13.5Zm0-6A1.5,1.5,0,1,1,1.5,9,1.5,1.5,0,0,1,0,7.5Zm0-6A1.5,1.5,0,1,1,1.5,3,1.5,1.5,0,0,1,0,1.5Z" fill="#2699fb"/>
        </g>
        <rect id="Rectangle_911" data-name="Rectangle 911" width="64" height="64" transform="translate(40 172)" fill="#648db6"/>
      </g>
      <g id="Posts-3" data-name="Posts" transform="translate(-16 180)">
        <rect id="Rectangle_234-2" data-name="Rectangle 234" width="343" height="112" transform="translate(16 148)" fill="#fff"/>
        <text id="Name_Surname_Lorem_ipsum_dolor_sit_amet_consectetur_adipisicing_elit_sed_do_eiusmod_tempor_incididunt.-2" data-name="Name Surname Lorem ipsum dolor sit amet, consectetur adipisicing elit, sed do eiusmod tempor incididunt." transform="translate(120 172)" font-size="15" font-family="Helvetica-Bold, Helvetica" font-weight="700"><tspan x="0" y="12">Name Surname</tspan><tspan y="12" xml:space="preserve" font-family="Helvetica" font-weight="400"> Lorem ipsum </tspan><tspan x="0" y="36" font-family="Helvetica" font-weight="400">dolor sit amet, consectetur </tspan><tspan x="0" y="60" font-family="Helvetica" font-weight="400">adipisicing elit, sed do eiusmod </tspan></text>
        <g id="title-2" data-name="title">
          <text id="John_Carter" data-name="John Carter" transform="translate(64 97)" fill="#517fad" font-size="18" font-family="Helvetica-Bold, Helvetica" font-weight="700"><tspan x="0" y="0">John Carter</tspan></text>
          <g id="Component_216_2" data-name="Component 216 – 2" transform="translate(16 85)">
            <circle id="Ellipse_234-2" data-name="Ellipse 234" cx="20" cy="20" r="20" fill="#9eb7d1"/>
            <path id="Union_44-2" data-name="Union 44" d="M0,370v-2c0-2.2,3.6-4,8-4s8,1.8,8,4v2Zm4-12a4,4,0,1,1,4,4A4,4,0,0,1,4,358Z" transform="translate(12 -342)" fill="#fff"/>
          </g>
        </g>
        <g id="Component_25_2" data-name="Component 25 – 2" transform="translate(356 97)" clip-path="url(#clip-path-2)">
          <path id="Union_1-2" data-name="Union 1" d="M0,13.5A1.5,1.5,0,1,1,1.5,15,1.5,1.5,0,0,1,0,13.5Zm0-6A1.5,1.5,0,1,1,1.5,9,1.5,1.5,0,0,1,0,7.5Zm0-6A1.5,1.5,0,1,1,1.5,3,1.5,1.5,0,0,1,0,1.5Z" fill="#2699fb"/>
        </g>
        <rect id="Rectangle_911-2" data-name="Rectangle 911" width="64" height="64" transform="translate(40 172)" fill="#648db6"/>
      </g>
      <g id="Posts-4" data-name="Posts" transform="translate(-16 444)">
        <rect id="Rectangle_234-3" data-name="Rectangle 234" width="343" height="112" transform="translate(16 148)" fill="#fff"/>
        <text id="Name_Surname_Lorem_ipsum_dolor_sit_amet_consectetur_adipisicing_elit_sed_do_eiusmod_tempor_incididunt.-3" data-name="Name Surname Lorem ipsum dolor sit amet, consectetur adipisicing elit, sed do eiusmod tempor incididunt." transform="translate(120 172)" font-size="15" font-family="Helvetica-Bold, Helvetica" font-weight="700"><tspan x="0" y="12">Name Surname</tspan><tspan y="12" xml:space="preserve" font-family="Helvetica" font-weight="400"> Lorem ipsum </tspan><tspan x="0" y="36" font-family="Helvetica" font-weight="400">dolor sit amet, consectetur </tspan><tspan x="0" y="60" font-family="Helvetica" font-weight="400">adipisicing elit, sed do eiusmod </tspan></text>
        <g id="title-3" data-name="title">
          <text id="Jesse_Carter" data-name="Jesse Carter" transform="translate(64 97)" fill="#517fad" font-size="18" font-family="Helvetica-Bold, Helvetica" font-weight="700"><tspan x="0" y="0">Jesse Carter</tspan></text>
          <g id="Component_216_3" data-name="Component 216 – 3" transform="translate(16 85)">
            <circle id="Ellipse_234-3" data-name="Ellipse 234" cx="20" cy="20" r="20" fill="#8ba9c8"/>
            <path id="Union_44-3" data-name="Union 44" d="M0,370v-2c0-2.2,3.6-4,8-4s8,1.8,8,4v2Zm4-12a4,4,0,1,1,4,4A4,4,0,0,1,4,358Z" transform="translate(12 -342)" fill="#fff"/>
          </g>
        </g>
        <g id="Component_25_3" data-name="Component 25 – 3" transform="translate(356 97)" clip-path="url(#clip-path-2)">
          <path id="Union_1-3" data-name="Union 1" d="M0,13.5A1.5,1.5,0,1,1,1.5,15,1.5,1.5,0,0,1,0,13.5Zm0-6A1.5,1.5,0,1,1,1.5,9,1.5,1.5,0,0,1,0,7.5Zm0-6A1.5,1.5,0,1,1,1.5,3,1.5,1.5,0,0,1,0,1.5Z" fill="#2699fb"/>
        </g>
        <rect id="Rectangle_911-3" data-name="Rectangle 911" width="64" height="64" transform="translate(40 172)" fill="#648db6"/>
      </g>
    </g>
    <g id="Navigation_Bar" data-name="Navigation Bar">
      <rect id="Rectangle_68" data-name="Rectangle 68" width="375" height="20" fill="none"/>
      <rect id="Rectangle_69" data-name="Rectangle 69" width="375" height="48" transform="translate(0 20)" fill="none"/>
      <text id="REMINDERS-2" data-name="REMINDERS" transform="translate(188 48)" fill="#648db6" font-size="20" font-family="Helvetica-Bold, Helvetica" font-weight="700"><tspan x="-60.005" y="0">REMINDERS</tspan></text>
      <g id="Backward_arrow" data-name="Backward arrow" transform="translate(16 36)" clip-path="url(#clip-path-5)">
        <path id="Path_10" data-name="Path 10" d="M8,0,6.545,1.455l5.506,5.506H0V9.039H12.052L6.545,14.545,8,16l8-8Z" transform="translate(16 16) rotate(180)" fill="#2699fb"/>
      </g>
    </g>
  </g>
</svg>
