<svg xmlns="http://www.w3.org/2000/svg" xmlns:xlink="http://www.w3.org/1999/xlink" width="375" height="818" viewBox="0 0 375 818">
  <defs>
    <clipPath id="clip-path">
      <rect width="343" height="673" fill="none"/>
    </clipPath>
    <clipPath id="clip-path-2">
      <rect width="16" height="16" fill="none"/>
    </clipPath>
    <clipPath id="clip-Your_Doctors_">
      <rect width="375" height="818"/>
    </clipPath>
  </defs>
  <g id="Your_Doctors_" data-name="Your Doctors " clip-path="url(#clip-Your_Doctors_)">
    <rect width="375" height="818" fill="#fff"/>
    <g id="Place" transform="translate(16 114)" clip-path="url(#clip-path)">
      <g id="Group_213" data-name="Group 213" transform="translate(-16 -128)">
        <path id="Path_2087" data-name="Path 2087" d="M0,0H343V160H0Z" transform="translate(16 128)" fill="#9eb7d1"/>
        <text id="Family_Medicine_of_SF_San_Franciso_CA" data-name="Family Medicine of SF
San Franciso, CA" transform="translate(40 181)" fill="#fff" font-size="15" font-family="Helvetica"><tspan x="0" y="0">Family Medicine of SF</tspan><tspan x="0" y="18">San Franciso, CA</tspan></text>
        <text id="Dr._Jane_Doe" data-name="Dr. Jane Doe" transform="translate(40 165)" fill="#fff" font-size="20" font-family="Helvetica"><tspan x="0" y="0">Dr. Jane Doe</tspan></text>
        <g id="Component_24_1" data-name="Component 24 – 1" transform="translate(319 248)" clip-path="url(#clip-path-2)">
          <path id="Path_10" data-name="Path 10" d="M8,0,6.545,1.455l5.506,5.506H0V9.039H12.052L6.545,14.545,8,16l8-8Z" fill="#517fad"/>
        </g>
      </g>
      <g id="Group_213-2" data-name="Group 213" transform="translate(-16 40)">
        <path id="Path_2087-2" data-name="Path 2087" d="M0,0H343V160H0Z" transform="translate(16 128)" fill="#9eb7d1"/>
        <text id="Family_Medicine_of_SF_San_Franciso_CA-2" data-name="Family Medicine of SF
San Franciso, CA" transform="translate(40 181)" fill="#fff" font-size="15" font-family="Helvetica"><tspan x="0" y="0">Family Medicine of SF</tspan><tspan x="0" y="18">San Franciso, CA</tspan></text>
        <text id="Dr._John_Doe" data-name="Dr. John Doe" transform="translate(40 165)" fill="#fff" font-size="20" font-family="Helvetica"><tspan x="0" y="0">Dr. John Doe</tspan></text>
        <g id="Component_24_2" data-name="Component 24 – 2" transform="translate(319 248)" clip-path="url(#clip-path-2)">
          <path id="Path_10-2" data-name="Path 10" d="M8,0,6.545,1.455l5.506,5.506H0V9.039H12.052L6.545,14.545,8,16l8-8Z" fill="#517fad"/>
        </g>
      </g>
      <g id="Group_213-3" data-name="Group 213" transform="translate(-16 208)">
        <path id="Path_2087-3" data-name="Path 2087" d="M0,0H343V160H0Z" transform="translate(16 128)" fill="#9eb7d1"/>
        <text id="Internal_Medicine_of_CA_San_Franciso_CA" data-name="Internal Medicine of CA
San Franciso, CA" transform="translate(40 181)" fill="#fff" font-size="15" font-family="Helvetica"><tspan x="0" y="0">Internal Medicine of CA</tspan><tspan x="0" y="18">San Franciso, CA</tspan></text>
        <text id="Dr._Kathy_Doe" data-name="Dr. Kathy Doe" transform="translate(40 165)" fill="#fff" font-size="20" font-family="Helvetica"><tspan x="0" y="0">Dr. Kathy Doe</tspan></text>
        <g id="Component_24_3" data-name="Component 24 – 3" transform="translate(319 248)" clip-path="url(#clip-path-2)">
          <path id="Path_10-3" data-name="Path 10" d="M8,0,6.545,1.455l5.506,5.506H0V9.039H12.052L6.545,14.545,8,16l8-8Z" fill="#517fad"/>
        </g>
      </g>
      <g id="Group_213-4" data-name="Group 213" transform="translate(-16 376)">
        <path id="Path_2087-4" data-name="Path 2087" d="M0,0H343V160H0Z" transform="translate(16 128)" fill="#9eb7d1"/>
        <text id="Oakland_Denistry_Oakland_CA" data-name="Oakland Denistry
Oakland, CA" transform="translate(40 181)" fill="#fff" font-size="15" font-family="Helvetica"><tspan x="0" y="0">Oakland Denistry</tspan><tspan x="0" y="18">Oakland, CA</tspan></text>
        <text id="Dr._Matthew_Doe" data-name="Dr. Matthew Doe" transform="translate(40 165)" fill="#fff" font-size="20" font-family="Helvetica"><tspan x="0" y="0">Dr. Matthew Doe</tspan></text>
        <g id="Component_24_4" data-name="Component 24 – 4" transform="translate(319 248)" clip-path="url(#clip-path-2)">
          <path id="Path_10-4" data-name="Path 10" d="M8,0,6.545,1.455l5.506,5.506H0V9.039H12.052L6.545,14.545,8,16l8-8Z" fill="#517fad"/>
        </g>
      </g>
      <g id="Group_213-5" data-name="Group 213" transform="translate(-16 544)">
        <path id="Path_2087-5" data-name="Path 2087" d="M0,0H343V160H0Z" transform="translate(16 128)" fill="#9eb7d1"/>
        <text id="Location" transform="translate(40 181)" fill="#fff" font-size="15" font-family="Helvetica"><tspan x="0" y="0">Location</tspan></text>
        <text id="Name_of_the_place" data-name="Name of the place" transform="translate(40 165)" fill="#fff" font-size="20" font-family="Helvetica"><tspan x="0" y="0">Name of the place</tspan></text>
        <g id="Component_24_4-2" data-name="Component 24 – 4" transform="translate(319 248)" clip-path="url(#clip-path-2)">
          <path id="Path_10-5" data-name="Path 10" d="M8,0,6.545,1.455l5.506,5.506H0V9.039H12.052L6.545,14.545,8,16l8-8Z" fill="#2699fb"/>
        </g>
      </g>
    </g>
    <g id="Navigation_Bar" data-name="Navigation Bar">
      <rect id="Rectangle_68" data-name="Rectangle 68" width="375" height="20" fill="none"/>
      <rect id="Rectangle_69" data-name="Rectangle 69" width="375" height="48" transform="translate(0 20)" fill="none"/>
      <text id="Your_Doctor_s_" data-name="Your Doctor’s " transform="translate(188 82)" fill="#517fad" font-size="25" font-family="Helvetica-Bold, Helvetica" font-weight="700"><tspan x="-108.813" y="0">YOUR DOCTOR’S </tspan></text>
      <g id="Backward_arrow" data-name="Backward arrow" transform="translate(16 36)" clip-path="url(#clip-path-2)">
        <path id="Path_10-6" data-name="Path 10" d="M8,0,6.545,1.455l5.506,5.506H0V9.039H12.052L6.545,14.545,8,16l8-8Z" transform="translate(16 16) rotate(180)" fill="#517fad"/>
      </g>
    </g>
  </g>
</svg>
