<svg xmlns="http://www.w3.org/2000/svg" xmlns:xlink="http://www.w3.org/1999/xlink" width="375" height="812" viewBox="0 0 375 812">
  <defs>
    <clipPath id="clip-path">
      <rect width="167" height="479" fill="none"/>
    </clipPath>
    <clipPath id="clip-Quiz_8">
      <rect width="375" height="812"/>
    </clipPath>
  </defs>
  <g id="Quiz_8" data-name="Quiz – 8" clip-path="url(#clip-Quiz_8)">
    <rect width="375" height="812" fill="#608295"/>
    <g id="Group_4129" data-name="Group 4129" transform="translate(-9754 -8875.489)">
      <text id="What_s_the_natural_light_like_in_your_bedroom_" data-name="What’s the natural light 
like in your bedroom?" transform="translate(9954.414 8978.612)" fill="#fff" font-size="25" font-family="Montserrat-Medium, Montserrat" font-weight="500"><tspan x="-153.85" y="0">What’s the natural light </tspan><tspan x="-137.8" y="30">like in your bedroom?</tspan></text>
      <path id="Path_5177" data-name="Path 5177" d="M27.009,0A27.009,27.009,0,1,1,0,27.009,27.009,27.009,0,0,1,27.009,0Z" transform="translate(10056.084 9555.389)" fill="#88a1af"/>
      <text id="Next" transform="translate(10021.083 9591.389)" fill="#fff" font-size="26" font-family="Nunito-Regular, Nunito" letter-spacing="-0.02em"><tspan x="-26.741" y="0">Next</tspan></text>
      <text id="Skip" transform="translate(9834 9590.389)" fill="#fff" font-size="27" font-family="Nunito-Regular, Nunito" letter-spacing="-0.02em"><tspan x="-25.259" y="0">Skip</tspan></text>
      <path id="Path_5178" data-name="Path 5178" d="M1.054,20.7C-.263,19.793-.354,18.975.827,17.84l6.812-6.812c.227-.227.409-.409.636-.681-.227-.227-.409-.454-.636-.681L.872,2.9a4.861,4.861,0,0,1-.636-.727A1.327,1.327,0,0,1,.464.448,1.267,1.267,0,0,1,2.144.221,4.861,4.861,0,0,1,2.87.857L10.953,8.94c1.09,1.09,1.09,1.771,0,2.861L2.87,19.884a9.581,9.581,0,0,1-1.044.863A4.155,4.155,0,0,0,1.054,20.7Z" transform="translate(10077.306 9571.7)" fill="#fff"/>
      <text id="Paint_Quiz" data-name="Paint Quiz" transform="translate(9941.465 8918.285)" fill="#fff" font-size="25" font-family="Ubuntu-Bold, Ubuntu" font-weight="700" letter-spacing="-0.02em"><tspan x="-59.088" y="0">Paint Quiz</tspan></text>
      <g id="Icon_feather-sun" data-name="Icon feather-sun">
        <path id="Path_5182" data-name="Path 5182" d="M25.5,18A7.5,7.5,0,1,1,18,10.5,7.5,7.5,0,0,1,25.5,18Z" fill="none" stroke="#000" stroke-linecap="round" stroke-linejoin="round" stroke-width="3"/>
        <path id="Path_5183" data-name="Path 5183" d="M18,1.5v3" fill="none" stroke="#000" stroke-linecap="round" stroke-linejoin="round" stroke-width="3"/>
        <path id="Path_5184" data-name="Path 5184" d="M18,31.5v3" fill="none" stroke="#000" stroke-linecap="round" stroke-linejoin="round" stroke-width="3"/>
        <path id="Path_5185" data-name="Path 5185" d="M6.33,6.33,8.46,8.46" fill="none" stroke="#000" stroke-linecap="round" stroke-linejoin="round" stroke-width="3"/>
        <path id="Path_5186" data-name="Path 5186" d="M27.54,27.54l2.13,2.13" fill="none" stroke="#000" stroke-linecap="round" stroke-linejoin="round" stroke-width="3"/>
        <path id="Path_5187" data-name="Path 5187" d="M1.5,18h3" fill="none" stroke="#000" stroke-linecap="round" stroke-linejoin="round" stroke-width="3"/>
        <path id="Path_5188" data-name="Path 5188" d="M31.5,18h3" fill="none" stroke="#000" stroke-linecap="round" stroke-linejoin="round" stroke-width="3"/>
        <path id="Path_5189" data-name="Path 5189" d="M6.33,29.67l2.13-2.13" fill="none" stroke="#000" stroke-linecap="round" stroke-linejoin="round" stroke-width="3"/>
        <path id="Path_5190" data-name="Path 5190" d="M27.54,8.46l2.13-2.13" fill="none" stroke="#000" stroke-linecap="round" stroke-linejoin="round" stroke-width="3"/>
      </g>
    </g>
    <g id="Repeat_Grid_3" data-name="Repeat Grid 3" transform="translate(21 197)" clip-path="url(#clip-path)">
      <g transform="translate(-21 -212)">
        <g id="Rectangle_2207" data-name="Rectangle 2207" transform="translate(21 212)" fill="#608295" stroke="#88a1af" stroke-width="1">
          <rect width="167" height="141" stroke="none"/>
          <rect x="0.5" y="0.5" width="166" height="140" fill="none"/>
        </g>
      </g>
      <g transform="translate(-21 -51)">
        <g id="Rectangle_2207-2" data-name="Rectangle 2207" transform="translate(21 212)" fill="#608295" stroke="#88a1af" stroke-width="1">
          <rect width="167" height="141" stroke="none"/>
          <rect x="0.5" y="0.5" width="166" height="140" fill="none"/>
        </g>
      </g>
      <g transform="translate(-21 110)">
        <g id="Rectangle_2207-3" data-name="Rectangle 2207" transform="translate(21 212)" fill="#608295" stroke="#88a1af" stroke-width="1">
          <rect width="167" height="141" stroke="none"/>
          <rect x="0.5" y="0.5" width="166" height="140" fill="none"/>
        </g>
      </g>
    </g>
    <path id="Icon_awesome-circle" data-name="Icon awesome-circle" d="M35.286.563C16.1.563.562,15.459.562,33.844S16.1,67.125,35.286,67.125,70.01,52.229,70.01,33.844,54.469.563,35.286.563Z" transform="translate(62.865 556.438)" fill="#fff"/>
    <path id="Icon_metro-sun" data-name="Icon metro-sun" d="M45.225,22.419c-11.8,0-21.411,9.212-21.411,20.532s9.606,20.532,21.411,20.532S66.636,54.27,66.636,42.95,57.03,22.419,45.225,22.419Zm0,35.2c-8.447,0-15.293-6.565-15.293-14.665s6.846-14.665,15.293-14.665S60.518,34.85,60.518,42.95,53.672,57.616,45.225,57.616Zm0-41.063a3,3,0,0,0,3.059-2.933V7.753a3.061,3.061,0,0,0-6.117,0v5.866A3,3,0,0,0,45.225,16.552Zm0,52.8a3,3,0,0,0-3.059,2.933v5.866a3.061,3.061,0,0,0,6.117,0V72.281A3,3,0,0,0,45.225,69.348ZM69.013,24.282l4.325-4.148a2.848,2.848,0,0,0,0-4.148,3.151,3.151,0,0,0-4.325,0l-4.325,4.148a2.848,2.848,0,0,0,0,4.148A3.151,3.151,0,0,0,69.013,24.282ZM21.437,61.618l-4.325,4.148a2.847,2.847,0,0,0,0,4.147,3.151,3.151,0,0,0,4.325,0l4.325-4.147a2.848,2.848,0,0,0,0-4.148A3.147,3.147,0,0,0,21.437,61.618ZM17.7,42.95a3,3,0,0,0-3.059-2.933H8.521a2.936,2.936,0,1,0,0,5.866h6.117A3,3,0,0,0,17.7,42.95Zm64.232-2.933H75.812a2.936,2.936,0,1,0,0,5.866h6.117a2.936,2.936,0,1,0,0-5.866Zm-60.5-15.735a3.151,3.151,0,0,0,4.325,0,2.847,2.847,0,0,0,0-4.148l-4.325-4.148a3.151,3.151,0,0,0-4.325,0,2.848,2.848,0,0,0,0,4.148ZM69.017,61.614a3.151,3.151,0,0,0-4.325,0,2.844,2.844,0,0,0,0,4.148l4.325,4.148a3.151,3.151,0,0,0,4.325,0,2.848,2.848,0,0,0,0-4.148Z" transform="translate(56.914 217.55)" fill="#fff"/>
    <text id="A_lot_" data-name="A lot " transform="translate(292.465 269.796)" fill="#fff" font-size="25" font-family="Ubuntu" letter-spacing="-0.02em"><tspan x="-28.625" y="0">A lot </tspan></text>
    <text id="Some" transform="translate(290.465 428.796)" fill="#fff" font-size="25" font-family="Ubuntu" letter-spacing="-0.02em"><tspan x="-31.025" y="0">Some</tspan></text>
    <text id="None" transform="translate(290.465 598.796)" fill="#fff" font-size="25" font-family="Ubuntu" letter-spacing="-0.02em"><tspan x="-29.887" y="0">None</tspan></text>
    <path id="Icon_feather-circle" data-name="Icon feather-circle" d="M65.539,34.216A31.269,31.269,0,1,1,34.269,3,31.243,31.243,0,0,1,65.539,34.216Z" transform="translate(67.6 386)" fill="none" stroke="#fff" stroke-linecap="round" stroke-linejoin="round" stroke-width="3"/>
  </g>
</svg>
