<svg xmlns="http://www.w3.org/2000/svg" xmlns:xlink="http://www.w3.org/1999/xlink" width="375" height="812" viewBox="0 0 375 812">
  <defs>
    <clipPath id="clip-path">
      <rect width="358" height="332" fill="none"/>
    </clipPath>
    <clipPath id="clip-Quiz_9">
      <rect width="375" height="812"/>
    </clipPath>
  </defs>
  <g id="Quiz_9" data-name="Quiz – 9" clip-path="url(#clip-Quiz_9)">
    <rect width="375" height="812" fill="#608295"/>
    <g id="Group_4129" data-name="Group 4129" transform="translate(-9748 -8878.489)">
      <text id="Now_lets_your_style_What_color_family_best_describe_the_mood_your_going_for_in_your_room_Choose_three_" data-name="Now lets your style…

What color family best 
describe the mood your
 going for in your room? 
(Choose three)" transform="translate(9935.414 8973.612)" fill="#fff" font-size="25" font-family="Montserrat-Medium, Montserrat" font-weight="500"><tspan x="-128.2" y="0">Now lets your style…</tspan><tspan x="0" y="30"></tspan><tspan x="-146.762" y="60">What color family best </tspan><tspan x="-151.712" y="90">describe the mood your</tspan><tspan x="-155.738" y="120" xml:space="preserve"> going for in your room? </tspan><tspan x="-93.137" y="150">(Choose three)</tspan></text>
      <path id="Path_5177" data-name="Path 5177" d="M27.009,0A27.009,27.009,0,1,1,0,27.009,27.009,27.009,0,0,1,27.009,0Z" transform="translate(10056.084 9626.389)" fill="#88a1af"/>
      <text id="Quiz_Results_" data-name="Quiz Results " transform="translate(9970 9662.389)" fill="#e4e4e4" font-size="27" font-family="Nunito-Regular, Nunito" letter-spacing="-0.02em"><tspan x="-76.167" y="0">Quiz Results </tspan></text>
      <path id="Path_5178" data-name="Path 5178" d="M1.054,20.7C-.263,19.793-.354,18.975.827,17.84l6.812-6.812c.227-.227.409-.409.636-.681-.227-.227-.409-.454-.636-.681L.872,2.9a4.861,4.861,0,0,1-.636-.727A1.327,1.327,0,0,1,.464.448,1.267,1.267,0,0,1,2.144.221,4.861,4.861,0,0,1,2.87.857L10.953,8.94c1.09,1.09,1.09,1.771,0,2.861L2.87,19.884a9.581,9.581,0,0,1-1.044.863A4.155,4.155,0,0,0,1.054,20.7Z" transform="translate(10077.306 9643.7)" fill="#fff"/>
      <text id="Paint_Quiz" data-name="Paint Quiz" transform="translate(9935.465 8919.285)" fill="#fff" font-size="25" font-family="Ubuntu-Bold, Ubuntu" font-weight="700" letter-spacing="-0.02em"><tspan x="-59.088" y="0">Paint Quiz</tspan></text>
      <g id="Icon_feather-sun" data-name="Icon feather-sun">
        <path id="Path_5182" data-name="Path 5182" d="M25.5,18A7.5,7.5,0,1,1,18,10.5,7.5,7.5,0,0,1,25.5,18Z" fill="none" stroke="#000" stroke-linecap="round" stroke-linejoin="round" stroke-width="3"/>
        <path id="Path_5183" data-name="Path 5183" d="M18,1.5v3" fill="none" stroke="#000" stroke-linecap="round" stroke-linejoin="round" stroke-width="3"/>
        <path id="Path_5184" data-name="Path 5184" d="M18,31.5v3" fill="none" stroke="#000" stroke-linecap="round" stroke-linejoin="round" stroke-width="3"/>
        <path id="Path_5185" data-name="Path 5185" d="M6.33,6.33,8.46,8.46" fill="none" stroke="#000" stroke-linecap="round" stroke-linejoin="round" stroke-width="3"/>
        <path id="Path_5186" data-name="Path 5186" d="M27.54,27.54l2.13,2.13" fill="none" stroke="#000" stroke-linecap="round" stroke-linejoin="round" stroke-width="3"/>
        <path id="Path_5187" data-name="Path 5187" d="M1.5,18h3" fill="none" stroke="#000" stroke-linecap="round" stroke-linejoin="round" stroke-width="3"/>
        <path id="Path_5188" data-name="Path 5188" d="M31.5,18h3" fill="none" stroke="#000" stroke-linecap="round" stroke-linejoin="round" stroke-width="3"/>
        <path id="Path_5189" data-name="Path 5189" d="M6.33,29.67l2.13-2.13" fill="none" stroke="#000" stroke-linecap="round" stroke-linejoin="round" stroke-width="3"/>
        <path id="Path_5190" data-name="Path 5190" d="M27.54,8.46l2.13-2.13" fill="none" stroke="#000" stroke-linecap="round" stroke-linejoin="round" stroke-width="3"/>
      </g>
    </g>
    <g id="Repeat_Grid_5" data-name="Repeat Grid 5" transform="translate(17 307)" clip-path="url(#clip-path)">
      <g transform="translate(-53 -282)">
        <g id="Rectangle_2209" data-name="Rectangle 2209" transform="translate(53 282)" fill="#608295" stroke="#88a1af" stroke-width="1">
          <rect width="103" height="91" stroke="none"/>
          <rect x="0.5" y="0.5" width="102" height="90" fill="none"/>
        </g>
      </g>
      <g transform="translate(70 -282)">
        <g id="Rectangle_2209-2" data-name="Rectangle 2209" transform="translate(53 282)" fill="#608295" stroke="#88a1af" stroke-width="1">
          <rect width="103" height="91" stroke="none"/>
          <rect x="0.5" y="0.5" width="102" height="90" fill="none"/>
        </g>
      </g>
      <g transform="translate(193 -282)">
        <g id="Rectangle_2209-3" data-name="Rectangle 2209" transform="translate(53 282)" fill="#608295" stroke="#88a1af" stroke-width="1">
          <rect width="103" height="91" stroke="none"/>
          <rect x="0.5" y="0.5" width="102" height="90" fill="none"/>
        </g>
      </g>
      <g transform="translate(-53 -171)">
        <g id="Rectangle_2209-4" data-name="Rectangle 2209" transform="translate(53 282)" fill="#608295" stroke="#88a1af" stroke-width="1">
          <rect width="103" height="91" stroke="none"/>
          <rect x="0.5" y="0.5" width="102" height="90" fill="none"/>
        </g>
      </g>
      <g transform="translate(70 -171)">
        <g id="Rectangle_2209-5" data-name="Rectangle 2209" transform="translate(53 282)" fill="#608295" stroke="#88a1af" stroke-width="1">
          <rect width="103" height="91" stroke="none"/>
          <rect x="0.5" y="0.5" width="102" height="90" fill="none"/>
        </g>
      </g>
      <g transform="translate(193 -171)">
        <g id="Rectangle_2209-6" data-name="Rectangle 2209" transform="translate(53 282)" fill="#608295" stroke="#88a1af" stroke-width="1">
          <rect width="103" height="91" stroke="none"/>
          <rect x="0.5" y="0.5" width="102" height="90" fill="none"/>
        </g>
      </g>
      <g transform="translate(-53 -60)">
        <g id="Rectangle_2209-7" data-name="Rectangle 2209" transform="translate(53 282)" fill="#608295" stroke="#88a1af" stroke-width="1">
          <rect width="103" height="91" stroke="none"/>
          <rect x="0.5" y="0.5" width="102" height="90" fill="none"/>
        </g>
      </g>
      <g transform="translate(70 -60)">
        <g id="Rectangle_2209-8" data-name="Rectangle 2209" transform="translate(53 282)" fill="#608295" stroke="#88a1af" stroke-width="1">
          <rect width="103" height="91" stroke="none"/>
          <rect x="0.5" y="0.5" width="102" height="90" fill="none"/>
        </g>
      </g>
      <g transform="translate(193 -60)">
        <g id="Rectangle_2209-9" data-name="Rectangle 2209" transform="translate(53 282)" fill="#608295" stroke="#88a1af" stroke-width="1">
          <rect width="103" height="91" stroke="none"/>
          <rect x="0.5" y="0.5" width="102" height="90" fill="none"/>
        </g>
      </g>
    </g>
    <text id="RED" transform="translate(65 359)" fill="#fff" font-size="15" font-family="Montserrat-SemiBold, Montserrat" font-weight="600"><tspan x="-16.702" y="0">RED</tspan></text>
    <text id="GREEN" transform="translate(65 469)" fill="#fff" font-size="15" font-family="Montserrat-SemiBold, Montserrat" font-weight="600"><tspan x="-27.398" y="0">GREEN</tspan></text>
    <text id="BLUE" transform="translate(61 579)" fill="#fff" font-size="15" font-family="Montserrat-SemiBold, Montserrat" font-weight="600"><tspan x="-21.067" y="0">BLUE</tspan></text>
    <text id="PURPLE" transform="translate(188 358)" fill="#fff" font-size="15" font-family="Montserrat-SemiBold, Montserrat" font-weight="600"><tspan x="-31.657" y="0">PURPLE</tspan></text>
    <text id="BLACK" transform="translate(188 469)" fill="#fff" font-size="15" font-family="Montserrat-SemiBold, Montserrat" font-weight="600"><tspan x="-26.7" y="0">BLACK</tspan></text>
    <text id="NATURAL" transform="translate(188 580)" fill="#fff" font-size="15" font-family="Montserrat-SemiBold, Montserrat" font-weight="600"><tspan x="-37.358" y="0">NATURAL</tspan></text>
    <text id="YELLOW" transform="translate(314 358)" fill="#fff" font-size="15" font-family="Montserrat-SemiBold, Montserrat" font-weight="600"><tspan x="-33.525" y="0">YELLOW</tspan></text>
    <text id="GRAY" transform="translate(318 469)" fill="#fff" font-size="15" font-family="Montserrat-SemiBold, Montserrat" font-weight="600"><tspan x="-21.533" y="0">GRAY</tspan></text>
    <text id="PINK" transform="translate(314 580)" fill="#fff" font-size="15" font-family="Montserrat-SemiBold, Montserrat" font-weight="600"><tspan x="-19.305" y="0">PINK</tspan></text>
  </g>
</svg>
