<svg xmlns="http://www.w3.org/2000/svg" xmlns:xlink="http://www.w3.org/1999/xlink" width="375" height="812" viewBox="0 0 375 812">
  <defs>
    <clipPath id="clip-Quiz_6">
      <rect width="375" height="812"/>
    </clipPath>
  </defs>
  <g id="Quiz_6" data-name="Quiz – 6" clip-path="url(#clip-Quiz_6)">
    <rect width="375" height="812" fill="#608295"/>
    <g id="Group_4129" data-name="Group 4129" transform="translate(-9748 -8878.489)">
      <text id="Now_lets_your_style_What_words_best_describe_the_mood_your_going_for_in_your_room_Choose_three_" data-name="Now lets your style…

What words best describe
 the mood your going 
for in your room? 
(Choose three)" transform="translate(9935.414 8968.612)" fill="#fff" font-size="25" font-family="Montserrat-Medium, Montserrat" font-weight="500"><tspan x="-128.2" y="0">Now lets your style…</tspan><tspan x="0" y="30"></tspan><tspan x="-165.962" y="60">What words best describe</tspan><tspan x="-141.387" y="90" xml:space="preserve"> the mood your going </tspan><tspan x="-111.788" y="120">for in your room? </tspan><tspan x="-93.137" y="150">(Choose three)</tspan></text>
      <path id="Path_5177" data-name="Path 5177" d="M27.009,0A27.009,27.009,0,1,1,0,27.009,27.009,27.009,0,0,1,27.009,0Z" transform="translate(10056.084 9626.389)" fill="#88a1af"/>
      <text id="Next" transform="translate(10013.083 9662.389)" fill="#fff" font-size="26" font-family="Nunito-Regular, Nunito" letter-spacing="-0.02em"><tspan x="-26.741" y="0">Next</tspan></text>
      <text id="Skip" transform="translate(9811 9663.389)" fill="#fff" font-size="27" font-family="Nunito-Regular, Nunito" letter-spacing="-0.02em"><tspan x="-25.259" y="0">Skip</tspan></text>
      <path id="Path_5178" data-name="Path 5178" d="M1.054,20.7C-.263,19.793-.354,18.975.827,17.84l6.812-6.812c.227-.227.409-.409.636-.681-.227-.227-.409-.454-.636-.681L.872,2.9a4.861,4.861,0,0,1-.636-.727A1.327,1.327,0,0,1,.464.448,1.267,1.267,0,0,1,2.144.221,4.861,4.861,0,0,1,2.87.857L10.953,8.94c1.09,1.09,1.09,1.771,0,2.861L2.87,19.884a9.581,9.581,0,0,1-1.044.863A4.155,4.155,0,0,0,1.054,20.7Z" transform="translate(10077.306 9643.7)" fill="#fff"/>
      <text id="Paint_Quiz" data-name="Paint Quiz" transform="translate(9935.465 8920.285)" fill="#fff" font-size="25" font-family="Ubuntu-Bold, Ubuntu" font-weight="700" letter-spacing="-0.02em"><tspan x="-59.088" y="0">Paint Quiz</tspan></text>
      <g id="Icon_feather-sun" data-name="Icon feather-sun">
        <path id="Path_5182" data-name="Path 5182" d="M25.5,18A7.5,7.5,0,1,1,18,10.5,7.5,7.5,0,0,1,25.5,18Z" fill="none" stroke="#000" stroke-linecap="round" stroke-linejoin="round" stroke-width="3"/>
        <path id="Path_5183" data-name="Path 5183" d="M18,1.5v3" fill="none" stroke="#000" stroke-linecap="round" stroke-linejoin="round" stroke-width="3"/>
        <path id="Path_5184" data-name="Path 5184" d="M18,31.5v3" fill="none" stroke="#000" stroke-linecap="round" stroke-linejoin="round" stroke-width="3"/>
        <path id="Path_5185" data-name="Path 5185" d="M6.33,6.33,8.46,8.46" fill="none" stroke="#000" stroke-linecap="round" stroke-linejoin="round" stroke-width="3"/>
        <path id="Path_5186" data-name="Path 5186" d="M27.54,27.54l2.13,2.13" fill="none" stroke="#000" stroke-linecap="round" stroke-linejoin="round" stroke-width="3"/>
        <path id="Path_5187" data-name="Path 5187" d="M1.5,18h3" fill="none" stroke="#000" stroke-linecap="round" stroke-linejoin="round" stroke-width="3"/>
        <path id="Path_5188" data-name="Path 5188" d="M31.5,18h3" fill="none" stroke="#000" stroke-linecap="round" stroke-linejoin="round" stroke-width="3"/>
        <path id="Path_5189" data-name="Path 5189" d="M6.33,29.67l2.13-2.13" fill="none" stroke="#000" stroke-linecap="round" stroke-linejoin="round" stroke-width="3"/>
        <path id="Path_5190" data-name="Path 5190" d="M27.54,8.46l2.13-2.13" fill="none" stroke="#000" stroke-linecap="round" stroke-linejoin="round" stroke-width="3"/>
      </g>
    </g>
    <g id="Path_5191" data-name="Path 5191" transform="translate(15 276)" fill="#608295">
      <path d="M 101.5 95.5 L 0.5 95.5 L 0.5 0.5 L 101.5 0.5 L 101.5 95.5 Z" stroke="none"/>
      <path d="M 1 1 L 1 95 L 101 95 L 101 1 L 1 1 M 0 0 L 102 0 L 102 96 L 0 96 L 0 0 Z" stroke="none" fill="#88a1af"/>
    </g>
    <g id="Path_5191-2" data-name="Path 5191" transform="translate(137 276)" fill="#608295">
      <path d="M 101.5 95.5 L 0.5 95.5 L 0.5 0.5 L 101.5 0.5 L 101.5 95.5 Z" stroke="none"/>
      <path d="M 1 1 L 1 95 L 101 95 L 101 1 L 1 1 M 0 0 L 102 0 L 102 96 L 0 96 L 0 0 Z" stroke="none" fill="#88a1af"/>
    </g>
    <g id="Path_5191-3" data-name="Path 5191" transform="translate(259 276)" fill="#608295">
      <path d="M 101.5 95.5 L 0.5 95.5 L 0.5 0.5 L 101.5 0.5 L 101.5 95.5 Z" stroke="none"/>
      <path d="M 1 1 L 1 95 L 101 95 L 101 1 L 1 1 M 0 0 L 102 0 L 102 96 L 0 96 L 0 0 Z" stroke="none" fill="#88a1af"/>
    </g>
    <g id="Path_5191-4" data-name="Path 5191" transform="translate(15 392)" fill="#608295">
      <path d="M 101.5 95.5 L 0.5 95.5 L 0.5 0.5 L 101.5 0.5 L 101.5 95.5 Z" stroke="none"/>
      <path d="M 1 1 L 1 95 L 101 95 L 101 1 L 1 1 M 0 0 L 102 0 L 102 96 L 0 96 L 0 0 Z" stroke="none" fill="#88a1af"/>
    </g>
    <g id="Path_5191-5" data-name="Path 5191" transform="translate(137 392)" fill="#608295">
      <path d="M 101.5 95.5 L 0.5 95.5 L 0.5 0.5 L 101.5 0.5 L 101.5 95.5 Z" stroke="none"/>
      <path d="M 1 1 L 1 95 L 101 95 L 101 1 L 1 1 M 0 0 L 102 0 L 102 96 L 0 96 L 0 0 Z" stroke="none" fill="#88a1af"/>
    </g>
    <g id="Path_5191-6" data-name="Path 5191" transform="translate(259 392)" fill="#608295">
      <path d="M 101.5 95.5 L 0.5 95.5 L 0.5 0.5 L 101.5 0.5 L 101.5 95.5 Z" stroke="none"/>
      <path d="M 1 1 L 1 95 L 101 95 L 101 1 L 1 1 M 0 0 L 102 0 L 102 96 L 0 96 L 0 0 Z" stroke="none" fill="#88a1af"/>
    </g>
    <g id="Path_5191-7" data-name="Path 5191" transform="translate(15 508)" fill="#608295">
      <path d="M 101.5 95.5 L 0.5 95.5 L 0.5 0.5 L 101.5 0.5 L 101.5 95.5 Z" stroke="none"/>
      <path d="M 1 1 L 1 95 L 101 95 L 101 1 L 1 1 M 0 0 L 102 0 L 102 96 L 0 96 L 0 0 Z" stroke="none" fill="#88a1af"/>
    </g>
    <g id="Path_5191-8" data-name="Path 5191" transform="translate(137 508)" fill="#608295">
      <path d="M 101.5 95.5 L 0.5 95.5 L 0.5 0.5 L 101.5 0.5 L 101.5 95.5 Z" stroke="none"/>
      <path d="M 1 1 L 1 95 L 101 95 L 101 1 L 1 1 M 0 0 L 102 0 L 102 96 L 0 96 L 0 0 Z" stroke="none" fill="#88a1af"/>
    </g>
    <g id="Path_5191-9" data-name="Path 5191" transform="translate(259 508)" fill="#608295">
      <path d="M 101.5 95.5 L 0.5 95.5 L 0.5 0.5 L 101.5 0.5 L 101.5 95.5 Z" stroke="none"/>
      <path d="M 1 1 L 1 95 L 101 95 L 101 1 L 1 1 M 0 0 L 102 0 L 102 96 L 0 96 L 0 0 Z" stroke="none" fill="#88a1af"/>
    </g>
    <g id="Path_5191-10" data-name="Path 5191" transform="translate(15 624)" fill="#608295">
      <path d="M 101.5 95.5 L 0.5 95.5 L 0.5 0.5 L 101.5 0.5 L 101.5 95.5 Z" stroke="none"/>
      <path d="M 1 1 L 1 95 L 101 95 L 101 1 L 1 1 M 0 0 L 102 0 L 102 96 L 0 96 L 0 0 Z" stroke="none" fill="#88a1af"/>
    </g>
    <g id="Path_5191-11" data-name="Path 5191" transform="translate(137 624)" fill="#608295">
      <path d="M 101.5 95.5 L 0.5 95.5 L 0.5 0.5 L 101.5 0.5 L 101.5 95.5 Z" stroke="none"/>
      <path d="M 1 1 L 1 95 L 101 95 L 101 1 L 1 1 M 0 0 L 102 0 L 102 96 L 0 96 L 0 0 Z" stroke="none" fill="#88a1af"/>
    </g>
    <g id="Path_5191-12" data-name="Path 5191" transform="translate(259 624)" fill="#608295">
      <path d="M 101.5 95.5 L 0.5 95.5 L 0.5 0.5 L 101.5 0.5 L 101.5 95.5 Z" stroke="none"/>
      <path d="M 1 1 L 1 95 L 101 95 L 101 1 L 1 1 M 0 0 L 102 0 L 102 96 L 0 96 L 0 0 Z" stroke="none" fill="#88a1af"/>
    </g>
    <text id="Cozy" transform="translate(66 330)" fill="#fff" font-size="15" font-family="Montserrat-SemiBold, Montserrat" font-weight="600"><tspan x="-18.33" y="0">Cozy</tspan></text>
    <text id="Airy" transform="translate(188 330)" fill="#fff" font-size="15" font-family="Montserrat-SemiBold, Montserrat" font-weight="600"><tspan x="-15.382" y="0">Airy</tspan></text>
    <text id="Playful" transform="translate(310 446)" fill="#fff" font-size="15" font-family="Montserrat-SemiBold, Montserrat" font-weight="600"><tspan x="-26.467" y="0">Playful</tspan></text>
    <text id="Edgy" transform="translate(188 446)" fill="#fff" font-size="15" font-family="Montserrat-SemiBold, Montserrat" font-weight="600"><tspan x="-19.68" y="0">Edgy</tspan></text>
    <text id="Classic" transform="translate(59 446)" fill="#fff" font-size="15" font-family="Montserrat-SemiBold, Montserrat" font-weight="600"><tspan x="-26.423" y="0">Classic</tspan></text>
    <text id="Bold" transform="translate(59 562)" fill="#fff" font-size="15" font-family="Montserrat-SemiBold, Montserrat" font-weight="600"><tspan x="-17.865" y="0">Bold</tspan></text>
    <text id="Mood" transform="translate(188 562)" fill="#fff" font-size="15" font-family="Montserrat-SemiBold, Montserrat" font-weight="600"><tspan x="-21.99" y="0">Mood</tspan></text>
    <text id="Natural" transform="translate(310 678)" fill="#fff" font-size="15" font-family="Montserrat-SemiBold, Montserrat" font-weight="600"><tspan x="-28.725" y="0">Natural</tspan></text>
    <text id="Whimscal" transform="translate(188 678)" fill="#fff" font-size="15" font-family="Montserrat-SemiBold, Montserrat" font-weight="600"><tspan x="-38.722" y="0">Whimscal</tspan></text>
    <text id="Bright" transform="translate(66 678)" fill="#fff" font-size="15" font-family="Montserrat-SemiBold, Montserrat" font-weight="600"><tspan x="-24.51" y="0">Bright</tspan></text>
    <text id="Clean" transform="translate(310 562)" fill="#fff" font-size="15" font-family="Montserrat-SemiBold, Montserrat" font-weight="600"><tspan x="-21.863" y="0">Clean</tspan></text>
    <text id="Dramatic" transform="translate(310 330)" fill="#fff" font-size="15" font-family="Montserrat-SemiBold, Montserrat" font-weight="600"><tspan x="-35.993" y="0">Dramatic</tspan></text>
  </g>
</svg>
