<svg xmlns="http://www.w3.org/2000/svg" xmlns:xlink="http://www.w3.org/1999/xlink" width="375" height="812" viewBox="0 0 375 812">
  <defs>
    <clipPath id="clip-Results">
      <rect width="375" height="812"/>
    </clipPath>
  </defs>
  <g id="Results" clip-path="url(#clip-Results)">
    <rect width="375" height="812" fill="#608295"/>
    <g id="Group_4129" data-name="Group 4129" transform="translate(-9737 -8874.489)">
      <text id="Our_top_picks_for_your_Bedroom_" data-name="Our top picks 
for your Bedroom " transform="translate(9935.414 8977.612)" fill="#fff" font-size="25" font-family="Montserrat-Bold, Montserrat" font-weight="700"><tspan x="-91.563" y="0">Our top picks </tspan><tspan x="-119.25" y="30">for your Bedroom </tspan></text>
      <path id="Path_5177" data-name="Path 5177" d="M27.009,0A27.009,27.009,0,1,1,0,27.009,27.009,27.009,0,0,1,27.009,0Z" transform="translate(10056.084 9626.389)" fill="#88a1af"/>
      <text id="Room_Visualizer" data-name="Room Visualizer" transform="translate(9956.083 9662.389)" fill="#fff" font-size="26" font-family="Nunito-Regular, Nunito" letter-spacing="-0.02em"><tspan x="-90.428" y="0">Room Visualizer</tspan></text>
      <text id="Skip" transform="translate(9811 9663.389)" fill="#fff" font-size="27" font-family="Nunito-Regular, Nunito" letter-spacing="-0.02em"><tspan x="-25.259" y="0">Skip</tspan></text>
      <path id="Path_5178" data-name="Path 5178" d="M1.054,20.7C-.263,19.793-.354,18.975.827,17.84l6.812-6.812c.227-.227.409-.409.636-.681-.227-.227-.409-.454-.636-.681L.872,2.9a4.861,4.861,0,0,1-.636-.727A1.327,1.327,0,0,1,.464.448,1.267,1.267,0,0,1,2.144.221,4.861,4.861,0,0,1,2.87.857L10.953,8.94c1.09,1.09,1.09,1.771,0,2.861L2.87,19.884a9.581,9.581,0,0,1-1.044.863A4.155,4.155,0,0,0,1.054,20.7Z" transform="translate(10077.306 9643.7)" fill="#fff"/>
      <text id="Paint_Quiz" data-name="Paint Quiz" transform="translate(9925.465 8919.285)" fill="#fff" font-size="25" font-family="Ubuntu-Bold, Ubuntu" font-weight="700" letter-spacing="-0.02em"><tspan x="-59.088" y="0">Paint Quiz</tspan></text>
      <g id="Icon_feather-sun" data-name="Icon feather-sun">
        <path id="Path_5182" data-name="Path 5182" d="M25.5,18A7.5,7.5,0,1,1,18,10.5,7.5,7.5,0,0,1,25.5,18Z" fill="none" stroke="#000" stroke-linecap="round" stroke-linejoin="round" stroke-width="3"/>
        <path id="Path_5183" data-name="Path 5183" d="M18,1.5v3" fill="none" stroke="#000" stroke-linecap="round" stroke-linejoin="round" stroke-width="3"/>
        <path id="Path_5184" data-name="Path 5184" d="M18,31.5v3" fill="none" stroke="#000" stroke-linecap="round" stroke-linejoin="round" stroke-width="3"/>
        <path id="Path_5185" data-name="Path 5185" d="M6.33,6.33,8.46,8.46" fill="none" stroke="#000" stroke-linecap="round" stroke-linejoin="round" stroke-width="3"/>
        <path id="Path_5186" data-name="Path 5186" d="M27.54,27.54l2.13,2.13" fill="none" stroke="#000" stroke-linecap="round" stroke-linejoin="round" stroke-width="3"/>
        <path id="Path_5187" data-name="Path 5187" d="M1.5,18h3" fill="none" stroke="#000" stroke-linecap="round" stroke-linejoin="round" stroke-width="3"/>
        <path id="Path_5188" data-name="Path 5188" d="M31.5,18h3" fill="none" stroke="#000" stroke-linecap="round" stroke-linejoin="round" stroke-width="3"/>
        <path id="Path_5189" data-name="Path 5189" d="M6.33,29.67l2.13-2.13" fill="none" stroke="#000" stroke-linecap="round" stroke-linejoin="round" stroke-width="3"/>
        <path id="Path_5190" data-name="Path 5190" d="M27.54,8.46l2.13-2.13" fill="none" stroke="#000" stroke-linecap="round" stroke-linejoin="round" stroke-width="3"/>
      </g>
      <text id="Money_Dreams" data-name="Money Dreams" transform="translate(10019 9184.389)" fill="#fff" font-size="27" font-family="Nunito-Regular, Nunito" letter-spacing="-0.02em"><tspan x="-87.858" y="0">Money Dreams</tspan></text>
      <text id="Teal_Me_" data-name="Teal Me " transform="translate(9984 9343.389)" fill="#fff" font-size="27" font-family="Nunito-Regular, Nunito" letter-spacing="-0.02em"><tspan x="-47.993" y="0">Teal Me </tspan></text>
      <text id="Love_Soft" data-name="Love Soft" transform="translate(9990 9514.389)" fill="#fff" font-size="27" font-family="Nunito-Regular, Nunito" letter-spacing="-0.02em"><tspan x="-54.5" y="0">Love Soft</tspan></text>
      <path id="Path_5196" data-name="Path 5196" d="M27.009,0A27.009,27.009,0,1,1,0,27.009,27.009,27.009,0,0,1,27.009,0Z" transform="translate(10050.084 10558.389)" fill="#88a1af"/>
    </g>
    <g id="Path_5197" data-name="Path 5197" transform="translate(20 231)" fill="#b0c6c2">
      <path d="M 159.5 141.5 L 0.5 141.5 L 0.5 0.5 L 159.5 0.5 L 159.5 141.5 Z" stroke="none"/>
      <path d="M 1 1 L 1 141 L 159 141 L 159 1 L 1 1 M 0 0 L 160 0 L 160 142 L 0 142 L 0 0 Z" stroke="none" fill="#88a1af"/>
    </g>
    <g id="Path_5192" data-name="Path 5192" transform="translate(20 393)" fill="#339886">
      <path d="M 159.5 141.5 L 0.5 141.5 L 0.5 0.5 L 159.5 0.5 L 159.5 141.5 Z" stroke="none"/>
      <path d="M 1 1 L 1 141 L 159 141 L 159 1 L 1 1 M 0 0 L 160 0 L 160 142 L 0 142 L 0 0 Z" stroke="none" fill="#88a1af"/>
    </g>
    <g id="Path_5193" data-name="Path 5193" transform="translate(20 555)" fill="#dbc0c5">
      <path d="M 159.5 141.5 L 0.5 141.5 L 0.5 0.5 L 159.5 0.5 L 159.5 141.5 Z" stroke="none"/>
      <path d="M 1 1 L 1 141 L 159 141 L 159 1 L 1 1 M 0 0 L 160 0 L 160 142 L 0 142 L 0 0 Z" stroke="none" fill="#88a1af"/>
    </g>
  </g>
</svg>
