<svg xmlns="http://www.w3.org/2000/svg" xmlns:xlink="http://www.w3.org/1999/xlink" width="375" height="812" viewBox="0 0 375 812">
  <defs>
    <clipPath id="clip-path">
      <rect width="335" height="215" fill="none"/>
    </clipPath>
    <clipPath id="clip-Room_Visualizer">
      <rect width="375" height="812"/>
    </clipPath>
  </defs>
  <g id="Room_Visualizer" data-name="Room Visualizer" clip-path="url(#clip-Room_Visualizer)">
    <rect width="375" height="812" fill="#608295"/>
    <g id="Group_4129" data-name="Group 4129" transform="translate(-9734 -8656.489)">
      <text id="Room_Visualizer-2" data-name="Room Visualizer" transform="translate(9928.465 8938.285)" fill="#fff" font-size="35" font-family="Ubuntu-Bold, Ubuntu" font-weight="700" letter-spacing="-0.02em"><tspan x="-129.71" y="0">Room Visualizer</tspan></text>
      <g id="Icon_feather-sun" data-name="Icon feather-sun">
        <path id="Path_5182" data-name="Path 5182" d="M25.5,18A7.5,7.5,0,1,1,18,10.5,7.5,7.5,0,0,1,25.5,18Z" fill="none" stroke="#000" stroke-linecap="round" stroke-linejoin="round" stroke-width="3"/>
        <path id="Path_5183" data-name="Path 5183" d="M18,1.5v3" fill="none" stroke="#000" stroke-linecap="round" stroke-linejoin="round" stroke-width="3"/>
        <path id="Path_5184" data-name="Path 5184" d="M18,31.5v3" fill="none" stroke="#000" stroke-linecap="round" stroke-linejoin="round" stroke-width="3"/>
        <path id="Path_5185" data-name="Path 5185" d="M6.33,6.33,8.46,8.46" fill="none" stroke="#000" stroke-linecap="round" stroke-linejoin="round" stroke-width="3"/>
        <path id="Path_5186" data-name="Path 5186" d="M27.54,27.54l2.13,2.13" fill="none" stroke="#000" stroke-linecap="round" stroke-linejoin="round" stroke-width="3"/>
        <path id="Path_5187" data-name="Path 5187" d="M1.5,18h3" fill="none" stroke="#000" stroke-linecap="round" stroke-linejoin="round" stroke-width="3"/>
        <path id="Path_5188" data-name="Path 5188" d="M31.5,18h3" fill="none" stroke="#000" stroke-linecap="round" stroke-linejoin="round" stroke-width="3"/>
        <path id="Path_5189" data-name="Path 5189" d="M6.33,29.67l2.13-2.13" fill="none" stroke="#000" stroke-linecap="round" stroke-linejoin="round" stroke-width="3"/>
        <path id="Path_5190" data-name="Path 5190" d="M27.54,8.46l2.13-2.13" fill="none" stroke="#000" stroke-linecap="round" stroke-linejoin="round" stroke-width="3"/>
      </g>
    </g>
    <g id="Group_4131" data-name="Group 4131" transform="translate(0 102)">
      <g id="Group_4130" data-name="Group 4130" transform="translate(4 5)">
        <g id="Repeat_Grid_6" data-name="Repeat Grid 6" transform="translate(16 205)" clip-path="url(#clip-path)">
          <g transform="translate(-20 -175)">
            <g id="Rectangle_2210" data-name="Rectangle 2210" transform="translate(20 175)" fill="#88a1af" stroke="#88a1af" stroke-width="1">
              <rect width="335" height="92" stroke="none"/>
              <rect x="0.5" y="0.5" width="334" height="91" fill="none"/>
            </g>
          </g>
          <g transform="translate(-20 -63)">
            <g id="Rectangle_2210-2" data-name="Rectangle 2210" transform="translate(20 175)" fill="#88a1af" stroke="#88a1af" stroke-width="1">
              <rect width="335" height="92" stroke="none"/>
              <rect x="0.5" y="0.5" width="334" height="91" fill="none"/>
            </g>
          </g>
        </g>
      </g>
      <g id="Icon_feather-plus" data-name="Icon feather-plus" transform="translate(60.5 251.5)">
        <path id="Path_5194" data-name="Path 5194" d="M18,7.5v21" fill="none" stroke="#fff" stroke-linecap="round" stroke-linejoin="round" stroke-width="3"/>
        <path id="Path_5195" data-name="Path 5195" d="M7.5,18h21" fill="none" stroke="#fff" stroke-linecap="round" stroke-linejoin="round" stroke-width="3"/>
      </g>
      <text id="Upload_Photo" data-name="Upload Photo" transform="translate(212 261)" fill="#fff" font-size="30" font-family="Montserrat-SemiBold, Montserrat" font-weight="600"><tspan x="-106.335" y="0">Upload Photo</tspan></text>
      <path id="Icon_awesome-camera" data-name="Icon awesome-camera" d="M36,10.125v20.25a3.376,3.376,0,0,1-3.375,3.375H3.375A3.376,3.376,0,0,1,0,30.375V10.125A3.376,3.376,0,0,1,3.375,6.75H9.563l.865-2.313A3.37,3.37,0,0,1,13.584,2.25h8.824a3.37,3.37,0,0,1,3.157,2.187l.872,2.313h6.188A3.376,3.376,0,0,1,36,10.125ZM26.438,20.25A8.438,8.438,0,1,0,18,28.688,8.444,8.444,0,0,0,26.438,20.25Zm-2.25,0A6.188,6.188,0,1,1,18,14.063,6.2,6.2,0,0,1,24.188,20.25Z" transform="translate(42 228.75)" fill="#fff"/>
      <text id="Choose_our_Rooms" data-name="Choose our Rooms" transform="translate(188 374)" fill="#fff" font-size="30" font-family="Montserrat-SemiBold, Montserrat" font-weight="600"><tspan x="-145.965" y="0">Choose our Rooms</tspan></text>
    </g>
  </g>
</svg>
