<svg xmlns="http://www.w3.org/2000/svg" xmlns:xlink="http://www.w3.org/1999/xlink" width="375" height="812" viewBox="0 0 375 812">
  <defs>
    <clipPath id="clip-path">
      <path id="Path_4870" data-name="Path 4870" d="M36.719,0H349.513c20.279,0,36.719,16.111,36.719,35.985v742.1c0,19.874-16.439,35.985-36.719,35.985H36.719C16.439,814.067,0,797.956,0,778.082V35.985C0,16.111,16.439,0,36.719,0Z" fill="#5c4db1"/>
    </clipPath>
    <clipPath id="clip-Welcome">
      <rect width="375" height="812"/>
    </clipPath>
  </defs>
  <g id="Welcome" clip-path="url(#clip-Welcome)">
    <rect width="375" height="812" fill="#608295"/>
    <g id="Group_4125" data-name="Group 4125" transform="translate(-11077.058 -10451.489)">
      <g id="Group_3915" data-name="Group 3915" transform="translate(11062.511 10451.489)">
        <path id="Intersection_5" data-name="Intersection 5" d="M0,119.1V62A62,62,0,0,1,62,0H308.574V55.465A63.635,63.635,0,0,1,244.939,119.1Z" transform="translate(86.353 694.966)" fill="#fff"/>
        <text id="Happy_Paint_Happy_Home_Happy_Life." data-name="Happy Paint
Happy Home
Happy Life." transform="translate(194.202 261.598)" fill="#fff" font-size="55" font-family="Montserrat-SemiBold, Montserrat" font-weight="600" letter-spacing="-0.05em"><tspan x="-160.71" y="0">Happy Paint</tspan><tspan x="-173.607" y="67">Happy Home</tspan><tspan x="-144.183" y="134">Happy Life.</tspan></text>
        <text id="Get_Started" data-name="Get Started" transform="translate(240.914 763.966)" fill="#608295" font-size="25" font-family="Montserrat-SemiBold, Montserrat" font-weight="600" letter-spacing="-0.05em"><tspan x="-67.55" y="0">Get Started</tspan></text>
        <text id="We_create_a_curated_stress_free_paint_shopping_experience." data-name="We create a curated stress free 
paint shopping experience." transform="translate(194.949 482.018)" fill="#fff" font-size="19" font-family="Montserrat-Medium, Montserrat" font-weight="500"><tspan x="-151.876" y="0">We create a curated stress free </tspan><tspan x="-131.546" y="23">paint shopping experience.</tspan></text>
        <g id="Group_3914" data-name="Group 3914" transform="translate(132.789 48.045)">
          <text id="Paint" transform="translate(24.488 30)" fill="#fff" font-size="34" font-family="Ubuntu-Bold, Ubuntu" font-weight="700"><tspan x="0" y="0">Paint</tspan></text>
        </g>
        <text id="a_paint_company_for_minimalist" data-name="a paint company for minimalist" transform="translate(201.949 109.018)" fill="#fff" font-size="15" font-family="Montserrat-Medium, Montserrat" font-weight="500"><tspan x="-119.228" y="0">a paint company for minimalist</tspan></text>
      </g>
    </g>
  </g>
</svg>
